<?xml version="1.0" encoding="UTF-8" standalone="no"?>
<svg
   xmlns:dc="http://purl.org/dc/elements/1.1/"
   xmlns:cc="http://creativecommons.org/ns#"
   xmlns:rdf="http://www.w3.org/1999/02/22-rdf-syntax-ns#"
   xmlns:svg="http://www.w3.org/2000/svg"
   xmlns="http://www.w3.org/2000/svg"
   viewBox="0 0 960 670.66669"
   height="670.66669"
   width="960"
   xml:space="preserve"
   id="svg2"
   version="1.1"><metadata
     id="metadata8"><rdf:RDF><cc:Work
         rdf:about=""><dc:format>image/svg+xml</dc:format><dc:type
           rdf:resource="http://purl.org/dc/dcmitype/StillImage" /></cc:Work></rdf:RDF></metadata><defs
     id="defs6"><clipPath
       id="clipPath48"
       clipPathUnits="userSpaceOnUse"><path
         id="path46"
         d="M 64.47,44.38 H 714.02 V 498.02 H 64.47 Z" /></clipPath></defs><g
     transform="matrix(1.3333333,0,0,-1.3333333,0,670.66667)"
     id="g10"><g
       id="g12" /><g
       id="g14" /><g
       id="g16" /><g
       id="g18" /><g
       id="g20" /><g
       id="g22" /><g
       id="g24" /><g
       id="g26" /><g
       id="g28" /><g
       id="g30" /><g
       id="g32"><path
         id="path34"
         style="fill:#ffffff;fill-opacity:1;fill-rule:nonzero;stroke:#ffffff;stroke-width:1.07000005;stroke-linecap:round;stroke-linejoin:round;stroke-miterlimit:10;stroke-dasharray:none;stroke-opacity:1"
         d="M 0,0 H 720 V 504 H 0 Z" /></g><g
       id="g36" /><g
       id="g38" /><g
       id="g40" /><g
       id="g42"><g
         clip-path="url(#clipPath48)"
         id="g44"><path
           id="path50"
           style="fill:#ffffff;fill-opacity:1;fill-rule:nonzero;stroke:none"
           d="M 64.47,44.38 H 714.02 V 498.02 H 64.47 Z" /><path
           id="path52"
           style="fill:none;stroke:#fafafa;stroke-width:1.07000005;stroke-linecap:butt;stroke-linejoin:round;stroke-miterlimit:10;stroke-dasharray:none;stroke-opacity:1"
           d="M 64.47,65 H 714.02" /><path
           id="path54"
           style="fill:none;stroke:#fafafa;stroke-width:1.07000005;stroke-linecap:butt;stroke-linejoin:round;stroke-miterlimit:10;stroke-dasharray:none;stroke-opacity:1"
           d="M 64.47,147.48 H 714.02" /><path
           id="path56"
           style="fill:none;stroke:#fafafa;stroke-width:1.07000005;stroke-linecap:butt;stroke-linejoin:round;stroke-miterlimit:10;stroke-dasharray:none;stroke-opacity:1"
           d="M 64.47,229.96 H 714.02" /><path
           id="path58"
           style="fill:none;stroke:#fafafa;stroke-width:1.07000005;stroke-linecap:butt;stroke-linejoin:round;stroke-miterlimit:10;stroke-dasharray:none;stroke-opacity:1"
           d="M 64.47,312.44 H 714.02" /><path
           id="path60"
           style="fill:none;stroke:#fafafa;stroke-width:1.07000005;stroke-linecap:butt;stroke-linejoin:round;stroke-miterlimit:10;stroke-dasharray:none;stroke-opacity:1"
           d="M 64.47,394.92 H 714.02" /><path
           id="path62"
           style="fill:none;stroke:#fafafa;stroke-width:1.07000005;stroke-linecap:butt;stroke-linejoin:round;stroke-miterlimit:10;stroke-dasharray:none;stroke-opacity:1"
           d="M 64.47,477.4 H 714.02" /><path
           id="path64"
           style="fill:none;stroke:#fafafa;stroke-width:1.07000005;stroke-linecap:butt;stroke-linejoin:round;stroke-miterlimit:10;stroke-dasharray:none;stroke-opacity:1"
           d="M 153.52,44.38 V 498.02" /><path
           id="path66"
           style="fill:none;stroke:#fafafa;stroke-width:1.07000005;stroke-linecap:butt;stroke-linejoin:round;stroke-miterlimit:10;stroke-dasharray:none;stroke-opacity:1"
           d="M 271.38,44.38 V 498.02" /><path
           id="path68"
           style="fill:none;stroke:#fafafa;stroke-width:1.07000005;stroke-linecap:butt;stroke-linejoin:round;stroke-miterlimit:10;stroke-dasharray:none;stroke-opacity:1"
           d="M 389.25,44.38 V 498.02" /><path
           id="path70"
           style="fill:none;stroke:#fafafa;stroke-width:1.07000005;stroke-linecap:butt;stroke-linejoin:round;stroke-miterlimit:10;stroke-dasharray:none;stroke-opacity:1"
           d="M 507.11,44.38 V 498.02" /><path
           id="path72"
           style="fill:none;stroke:#fafafa;stroke-width:1.07000005;stroke-linecap:butt;stroke-linejoin:round;stroke-miterlimit:10;stroke-dasharray:none;stroke-opacity:1"
           d="M 624.98,44.38 V 498.02" /><path
           id="path74"
           style="fill:none;stroke:#e5e5e5;stroke-width:0.43000001;stroke-linecap:butt;stroke-linejoin:round;stroke-miterlimit:10;stroke-dasharray:none;stroke-opacity:1"
           d="M 64.47,106.24 H 714.02" /><path
           id="path76"
           style="fill:none;stroke:#e5e5e5;stroke-width:0.43000001;stroke-linecap:butt;stroke-linejoin:round;stroke-miterlimit:10;stroke-dasharray:none;stroke-opacity:1"
           d="M 64.47,188.72 H 714.02" /><path
           id="path78"
           style="fill:none;stroke:#e5e5e5;stroke-width:0.43000001;stroke-linecap:butt;stroke-linejoin:round;stroke-miterlimit:10;stroke-dasharray:none;stroke-opacity:1"
           d="M 64.47,271.2 H 714.02" /><path
           id="path80"
           style="fill:none;stroke:#e5e5e5;stroke-width:0.43000001;stroke-linecap:butt;stroke-linejoin:round;stroke-miterlimit:10;stroke-dasharray:none;stroke-opacity:1"
           d="M 64.47,353.68 H 714.02" /><path
           id="path82"
           style="fill:none;stroke:#e5e5e5;stroke-width:0.43000001;stroke-linecap:butt;stroke-linejoin:round;stroke-miterlimit:10;stroke-dasharray:none;stroke-opacity:1"
           d="M 64.47,436.16 H 714.02" /><path
           id="path84"
           style="fill:none;stroke:#e5e5e5;stroke-width:0.43000001;stroke-linecap:butt;stroke-linejoin:round;stroke-miterlimit:10;stroke-dasharray:none;stroke-opacity:1"
           d="M 94.59,44.38 V 498.02" /><path
           id="path86"
           style="fill:none;stroke:#e5e5e5;stroke-width:0.43000001;stroke-linecap:butt;stroke-linejoin:round;stroke-miterlimit:10;stroke-dasharray:none;stroke-opacity:1"
           d="M 212.45,44.38 V 498.02" /><path
           id="path88"
           style="fill:none;stroke:#e5e5e5;stroke-width:0.43000001;stroke-linecap:butt;stroke-linejoin:round;stroke-miterlimit:10;stroke-dasharray:none;stroke-opacity:1"
           d="M 330.32,44.38 V 498.02" /><path
           id="path90"
           style="fill:none;stroke:#e5e5e5;stroke-width:0.43000001;stroke-linecap:butt;stroke-linejoin:round;stroke-miterlimit:10;stroke-dasharray:none;stroke-opacity:1"
           d="M 448.18,44.38 V 498.02" /><path
           id="path92"
           style="fill:none;stroke:#e5e5e5;stroke-width:0.43000001;stroke-linecap:butt;stroke-linejoin:round;stroke-miterlimit:10;stroke-dasharray:none;stroke-opacity:1"
           d="M 566.04,44.38 V 498.02" /><path
           id="path94"
           style="fill:none;stroke:#e5e5e5;stroke-width:0.43000001;stroke-linecap:butt;stroke-linejoin:round;stroke-miterlimit:10;stroke-dasharray:none;stroke-opacity:1"
           d="M 683.91,44.38 V 498.02" /><path
           id="path96"
           style="fill:none;stroke:#ffffff;stroke-width:2.1400001;stroke-linecap:butt;stroke-linejoin:round;stroke-miterlimit:1;stroke-dasharray:none;stroke-opacity:0.8"
           d="m 95.78,271.2 h 5.32 5.31 5.32 5.32 5.31 5.32 5.32 5.32 5.31 5.32 5.32 5.32 5.31 5.32 5.32 5.32 5.31 5.32 5.32 5.32 5.31 5.32 5.32 5.31 5.32 5.32 5.32 5.31 5.32 5.32 5.32 5.31 5.32 5.32 5.32 5.31 5.32 5.32 5.31 5.32 5.32 5.32 5.31 5.32 5.32 5.32 5.31 5.32 5.32 5.32 5.31 5.32 5.32 5.31 5.32 5.32 5.32 5.31 5.32 5.32 5.32 5.31 5.32 5.32 5.32 5.31 5.32 5.32 5.31 5.32 5.32 5.32 5.31 5.32 5.32 5.32 5.31 5.32 5.32 5.32 5.31 5.32 5.32 5.31 5.32 5.32 5.32 5.31 5.32 5.32 5.32 5.31 5.32 5.32 5.32 5.31 5.32 5.32 5.32" /><path
           id="path98"
           style="fill:none;stroke:#ffffff;stroke-width:2.1400001;stroke-linecap:butt;stroke-linejoin:round;stroke-miterlimit:1;stroke-dasharray:none;stroke-opacity:0.8"
           d="m 95.78,271.2 h 5.32 5.31 5.32 5.32 5.31 5.32 5.32 5.32 5.31 5.32 5.32 5.32 5.31 5.32 5.32 5.32 5.31 5.32 5.32 5.32 5.31 5.32 5.32 5.31 5.32 5.32 5.32 5.31 5.32 5.32 5.32 5.31 5.32 5.32 5.32 5.31 5.32 5.32 5.31 5.32 5.32 5.32 5.31 5.32 5.32 5.32 5.31 5.32 5.32 5.32 5.31 5.32 5.32 5.31 5.32 5.32 5.32 5.31 5.32 5.32 5.32 5.31 5.32 5.32 5.32 5.31 5.32 5.32 5.31 5.32 5.32 5.32 5.31 5.32 5.32 5.32 5.31 5.32 5.32 5.32 5.31 5.32 5.32 5.31 5.32 5.32 5.32 5.31 5.32 5.32 5.32 5.31 5.32 5.32 5.32 5.31 5.32 5.32 5.32" /><path
           id="path100"
           style="fill:none;stroke:#ffffff;stroke-width:2.1400001;stroke-linecap:butt;stroke-linejoin:round;stroke-miterlimit:1;stroke-dasharray:none;stroke-opacity:0.8"
           d="m 95.78,271.2 h 5.32 5.31 5.32 5.32 5.31 5.32 5.32 5.32 5.31 5.32 5.32 5.32 5.31 5.32 5.32 5.32 5.31 5.32 5.32 5.32 5.31 5.32 5.32 5.31 5.32 5.32 5.32 5.31 5.32 5.32 5.32 5.31 5.32 5.32 5.32 5.31 5.32 5.32 5.31 5.32 5.32 5.32 5.31 5.32 5.32 5.32 5.31 5.32 5.32 5.32 5.31 5.32 5.32 5.31 5.32 5.32 5.32 5.31 5.32 5.32 5.32 5.31 5.32 5.32 5.32 5.31 5.32 5.32 5.31 5.32 5.32 5.32 5.31 5.32 5.32 5.32 5.31 5.32 5.32 5.32 5.31 5.32 5.32 5.31 5.32 5.32 5.32 5.31 5.32 5.32 5.32 5.31 5.32 5.32 5.32 5.31 5.32 5.32 5.32" /><path
           id="path102"
           style="fill:none;stroke:#fc6e4f;stroke-width:6.53999996;stroke-linecap:butt;stroke-linejoin:round;stroke-miterlimit:1;stroke-dasharray:none;stroke-opacity:0.8"
           d="m 95.78,280.38 5.32,0.01 5.31,0.1 5.32,0.21 5.32,0.39 5.31,0.57 5.32,0.81 5.32,0.99 5.32,1.16 5.31,1.3 5.32,1.42 5.32,1.49 5.32,1.53 5.31,1.51 5.32,1.46 5.32,1.37 5.32,1.29 5.31,1.2 5.32,1.13 5.32,1.07 5.32,1.03 5.31,0.96 5.32,0.89 5.32,0.78 5.31,0.65 5.32,0.43 5.32,0.15 5.32,-0.2 5.31,-0.63 5.32,-1.13 5.32,-1.64 5.32,-2.08 5.31,-2.38 5.32,-2.51 5.32,-2.5 5.32,-2.38 5.31,-2.16 5.32,-1.73 5.32,-1.2 5.31,-0.59 5.32,-0.22 5.32,0.22 5.32,0.45 5.31,0.46 5.32,0.23 5.32,-0.36 5.32,-1.27 5.31,-2.41 5.32,-3.45 5.32,-4.7 5.32,-6.5 5.31,-8.07 5.32,-9.23 5.32,-10.3 5.31,-11.11 5.32,-11.45 5.32,-11.5 5.32,-11.22 5.31,-10.36 5.32,-8.61 5.32,-7.05 5.32,-5.61 5.31,-3.97 5.32,-2.58 5.32,-2.02 5.32,-1.41 5.31,-0.91 5.32,-0.43 5.32,-0.08 5.31,0.21 5.32,0.4 5.32,0.61 5.32,0.94 5.31,1 5.32,1.06 5.32,1.16 5.32,1.19 5.31,1.22 5.32,1.25 5.32,1.3 5.32,1.32 5.31,1.32 5.32,1.31 5.32,1.31 5.31,1.31 5.32,1.28 5.32,1.26 5.32,1.23 5.31,1.22 5.32,1.18 5.32,1.18 5.32,1.16 5.31,1.03 5.32,0.9 5.32,0.8 5.32,0.47 5.31,0.19 5.32,0.08 5.32,0.07 5.32,0.03" /><path
           id="path104"
           style="fill:none;stroke:#ffffff;stroke-width:2.1400001;stroke-linecap:butt;stroke-linejoin:round;stroke-miterlimit:1;stroke-dasharray:none;stroke-opacity:0.8"
           d="m 95.78,271.2 h 5.32 5.31 5.32 5.32 5.31 5.32 5.32 5.32 5.31 5.32 5.32 5.32 5.31 5.32 5.32 5.32 5.31 5.32 5.32 5.32 5.31 5.32 5.32 5.31 5.32 5.32 5.32 5.31 5.32 5.32 5.32 5.31 5.32 5.32 5.32 5.31 5.32 5.32 5.31 5.32 5.32 5.32 5.31 5.32 5.32 5.32 5.31 5.32 5.32 5.32 5.31 5.32 5.32 5.31 5.32 5.32 5.32 5.31 5.32 5.32 5.32 5.31 5.32 5.32 5.32 5.31 5.32 5.32 5.31 5.32 5.32 5.32 5.31 5.32 5.32 5.32 5.31 5.32 5.32 5.32 5.31 5.32 5.32 5.31 5.32 5.32 5.32 5.31 5.32 5.32 5.32 5.31 5.32 5.32 5.32 5.31 5.32 5.32 5.32" /><path
           id="path106"
           style="fill:none;stroke:#ff9276;stroke-width:5.28999996;stroke-linecap:butt;stroke-linejoin:round;stroke-miterlimit:1;stroke-dasharray:none;stroke-opacity:0.8"
           d="m 95.78,393.35 5.32,-0.16 5.31,-0.78 5.32,-1.61 5.32,-2.72 5.31,-3.76 5.32,-5.1 5.32,-6.15 5.32,-7.15 5.31,-8.28 5.32,-9.25 5.32,-10.36 5.32,-11.28 5.31,-11.91 5.32,-12.45 5.32,-12.8 5.32,-12.79 5.31,-12.47 5.32,-11.85 5.32,-11.03 5.32,-9.92 5.31,-8.05 5.32,-5.57 5.32,-3.38 5.31,-1.27 5.32,0.67 5.32,2.48 5.32,3.96 5.31,5.15 5.32,6.06 5.32,6.48 5.32,6.47 5.31,6.12 5.32,5.65 5.32,5.04 5.32,4.13 5.31,3.27 5.32,2.08 5.32,0.88 5.31,-0.3 5.32,-0.97 5.32,-1.71 5.32,-2.18 5.31,-2.45 5.32,-2.55 5.32,-2.49 5.32,-2.32 5.31,-2.1 5.32,-1.89 5.32,-1.69 5.32,-1.41 5.31,-1.21 5.32,-1.09 5.32,-1 5.31,-0.93 5.32,-0.9 5.32,-0.9 5.32,-0.89 5.31,-0.88 5.32,-0.85 5.32,-0.8 5.32,-0.75 5.31,-0.65 5.32,-0.56 5.32,-0.51 5.32,-0.47 5.31,-0.41 5.32,-0.36 5.32,-0.32 5.31,-0.29 5.32,-0.26 5.32,-0.22 5.32,-0.17 5.31,-0.16 5.32,-0.14 5.32,-0.13 5.32,-0.11 5.31,-0.11 5.32,-0.09 5.32,-0.06 5.32,-0.04 5.31,-0.02 h 5.32 5.32 5.31 l 5.32,0.01 5.32,0.01 5.32,0.01 5.31,0.01 5.32,0.02 5.32,0.01 5.32,0.02 5.31,0.02 5.32,0.02 5.32,0.01 5.32,0.01 5.31,0.01 h 5.32 5.32 l 5.32,0.01" /><path
           id="path108"
           style="fill:none;stroke:#ffffff;stroke-width:2.1400001;stroke-linecap:butt;stroke-linejoin:round;stroke-miterlimit:1;stroke-dasharray:none;stroke-opacity:0.8"
           d="m 95.78,271.2 h 5.32 5.31 5.32 5.32 5.31 5.32 5.32 5.32 5.31 5.32 5.32 5.32 5.31 5.32 5.32 5.32 5.31 5.32 5.32 5.32 5.31 5.32 5.32 5.31 5.32 5.32 5.32 5.31 5.32 5.32 5.32 5.31 5.32 5.32 5.32 5.31 5.32 5.32 5.31 5.32 5.32 5.32 5.31 5.32 5.32 5.32 5.31 5.32 5.32 5.32 5.31 5.32 5.32 5.31 5.32 5.32 5.32 5.31 5.32 5.32 5.32 5.31 5.32 5.32 5.32 5.31 5.32 5.32 5.31 5.32 5.32 5.32 5.31 5.32 5.32 5.32 5.31 5.32 5.32 5.32 5.31 5.32 5.32 5.31 5.32 5.32 5.32 5.31 5.32 5.32 5.32 5.31 5.32 5.32 5.32 5.31 5.32 5.32 5.32" /><path
           id="path110"
           style="fill:none;stroke:#ff9a7f;stroke-width:5.03999996;stroke-linecap:butt;stroke-linejoin:round;stroke-miterlimit:1;stroke-dasharray:none;stroke-opacity:0.8"
           d="m 95.78,268.11 5.32,0.12 5.31,0.56 5.32,1.09 5.32,1.7 5.31,2.17 5.32,2.56 5.32,2.74 5.32,2.75 5.31,2.59 5.32,2.34 5.32,1.88 5.32,1.39 5.31,0.94 5.32,0.42 5.32,-0.11 5.32,-0.41 5.31,-0.64 5.32,-0.72 5.32,-0.68 5.32,-0.51 5.31,-0.13 5.32,0.39 5.32,0.86 5.31,1.27 5.32,1.58 5.32,1.79 5.32,1.83 5.31,1.7 5.32,1.39 5.32,0.88 5.32,0.27 5.31,-0.37 5.32,-0.83 5.32,-1.24 5.32,-1.75 5.31,-2.11 5.32,-2.53 5.32,-2.83 5.31,-3.04 5.32,-3.08 5.32,-3.02 5.32,-2.88 5.31,-2.69 5.32,-2.48 5.32,-2.24 5.32,-2 5.31,-1.87 5.32,-1.81 5.32,-1.86 5.32,-2.03 5.31,-2.28 5.32,-2.54 5.32,-2.92 5.31,-3.33 5.32,-3.68 5.32,-4.04 5.32,-4.38 5.31,-4.8 5.32,-5.34 5.32,-5.64 5.32,-5.77 5.31,-5.8 5.32,-5.75 5.32,-5.68 5.32,-5.59 5.31,-5.46 5.32,-5.3 5.32,-5.17 5.31,-5.02 5.32,-4.92 5.32,-4.75 5.32,-4.46 5.31,-4.4 5.32,-4.32 5.32,-4.16 5.32,-4.1 5.31,-4.01 5.32,-3.85 5.32,-3.58 5.32,-3.35 5.31,-3 5.32,-2.79 5.32,-2.72 5.31,-2.71 5.32,-2.62 5.32,-2.52 5.32,-2.44 5.31,-2.38 5.32,-2.28 5.32,-2.29 5.32,-2.24 5.31,-1.95 5.32,-1.69 5.32,-1.5 5.32,-0.88 5.31,-0.36 5.32,-0.14 5.32,-0.15 5.32,-0.04" /><path
           id="path112"
           style="fill:none;stroke:#ffffff;stroke-width:2.1500001;stroke-linecap:butt;stroke-linejoin:round;stroke-miterlimit:1;stroke-dasharray:none;stroke-opacity:0.8"
           d="m 95.78,271.2 h 5.32 5.31 5.32 5.32 5.31 5.32 5.32 5.32 5.31 5.32 5.32 5.32 5.31 5.32 5.32 5.32 5.31 5.32 5.32 5.32 5.31 5.32 5.32 5.31 5.32 5.32 5.32 5.31 5.32 5.32 5.32 5.31 5.32 5.32 5.32 5.31 5.32 5.32 5.31 5.32 5.32 5.32 5.31 5.32 5.32 5.32 5.31 5.32 5.32 5.32 5.31 5.32 5.32 5.31 5.32 5.32 5.32 5.31 5.32 5.32 5.32 5.31 5.32 5.32 5.32 5.31 5.32 5.32 5.31 5.32 5.32 5.32 5.31 5.32 5.32 5.32 5.31 5.32 5.32 5.32 5.31 5.32 5.32 5.31 5.32 5.32 5.32 5.31 5.32 5.32 5.32 5.31 5.32 5.32 5.32 5.31 5.32 5.32 5.32" /><path
           id="path114"
           style="fill:none;stroke:#ffad96;stroke-width:4.48999977;stroke-linecap:butt;stroke-linejoin:round;stroke-miterlimit:1;stroke-dasharray:none;stroke-opacity:0.8"
           d="m 95.78,339.41 h 5.32 l 5.31,0.03 5.32,0.04 5.32,0.03 5.31,-0.04 5.32,-0.21 5.32,-0.41 5.32,-0.67 5.31,-1.03 5.32,-1.37 5.32,-1.83 5.32,-2.23 5.31,-2.52 5.32,-2.78 5.32,-3.01 5.32,-3.1 5.31,-3.1 5.32,-3.07 5.32,-3.01 5.32,-2.94 5.31,-2.88 5.32,-2.87 5.32,-3 5.31,-3.21 5.32,-3.56 5.32,-4 5.32,-4.5 5.31,-5.04 5.32,-5.61 5.32,-6.05 5.32,-6.35 5.31,-6.43 5.32,-6.34 5.32,-6.1 5.32,-5.66 5.31,-5.13 5.32,-4.32 5.32,-3.36 5.31,-2.32 5.32,-1.64 5.32,-0.75 5.32,-0.07 5.31,0.47 5.32,0.85 5.32,1.11 5.32,1.22 5.31,1.21 5.32,1.1 5.32,0.91 5.32,0.58 5.31,0.28 5.32,0.03 5.32,-0.23 5.31,-0.44 5.32,-0.57 5.32,-0.66 5.32,-0.7 5.31,-0.69 5.32,-0.6 5.32,-0.5 5.32,-0.4 5.31,-0.29 5.32,-0.17 5.32,-0.14 5.32,-0.09 5.31,-0.06 5.32,-0.02 h 5.32 l 5.31,0.02 5.32,0.03 5.32,0.05 5.32,0.07 5.31,0.07 5.32,0.07 5.32,0.08 5.32,0.09 5.31,0.08 5.32,0.08 5.32,0.09 5.32,0.09 5.31,0.08 5.32,0.09 5.32,0.08 5.31,0.09 5.32,0.08 5.32,0.08 5.32,0.07 5.31,0.08 5.32,0.08 5.32,0.07 5.32,0.07 5.31,0.07 5.32,0.05 5.32,0.05 5.32,0.03 5.31,0.02 h 5.32 5.32 l 5.32,0.01" /><path
           id="path116"
           style="fill:none;stroke:#ffffff;stroke-width:2.1400001;stroke-linecap:butt;stroke-linejoin:round;stroke-miterlimit:1;stroke-dasharray:none;stroke-opacity:0.8"
           d="m 95.78,271.2 h 5.32 5.31 5.32 5.32 5.31 5.32 5.32 5.32 5.31 5.32 5.32 5.32 5.31 5.32 5.32 5.32 5.31 5.32 5.32 5.32 5.31 5.32 5.32 5.31 5.32 5.32 5.32 5.31 5.32 5.32 5.32 5.31 5.32 5.32 5.32 5.31 5.32 5.32 5.31 5.32 5.32 5.32 5.31 5.32 5.32 5.32 5.31 5.32 5.32 5.32 5.31 5.32 5.32 5.31 5.32 5.32 5.32 5.31 5.32 5.32 5.32 5.31 5.32 5.32 5.32 5.31 5.32 5.32 5.31 5.32 5.32 5.32 5.31 5.32 5.32 5.32 5.31 5.32 5.32 5.32 5.31 5.32 5.32 5.31 5.32 5.32 5.32 5.31 5.32 5.32 5.32 5.31 5.32 5.32 5.32 5.31 5.32 5.32 5.32" /><path
           id="path118"
           style="fill:none;stroke:#ffffff;stroke-width:2.1400001;stroke-linecap:butt;stroke-linejoin:round;stroke-miterlimit:1;stroke-dasharray:none;stroke-opacity:0.8"
           d="m 95.78,271.2 h 5.32 5.31 5.32 5.32 5.31 5.32 5.32 5.32 5.31 5.32 5.32 5.32 5.31 5.32 5.32 5.32 5.31 5.32 5.32 5.32 5.31 5.32 5.32 5.31 5.32 5.32 5.32 5.31 5.32 5.32 5.32 5.31 5.32 5.32 5.32 5.31 5.32 5.32 5.31 5.32 5.32 5.32 5.31 5.32 5.32 5.32 5.31 5.32 5.32 5.32 5.31 5.32 5.32 5.31 5.32 5.32 5.32 5.31 5.32 5.32 5.32 5.31 5.32 5.32 5.32 5.31 5.32 5.32 5.31 5.32 5.32 5.32 5.31 5.32 5.32 5.32 5.31 5.32 5.32 5.32 5.31 5.32 5.32 5.31 5.32 5.32 5.32 5.31 5.32 5.32 5.32 5.31 5.32 5.32 5.32 5.31 5.32 5.32 5.32" /><path
           id="path120"
           style="fill:none;stroke:#ffffff;stroke-width:2.1400001;stroke-linecap:butt;stroke-linejoin:round;stroke-miterlimit:1;stroke-dasharray:none;stroke-opacity:0.8"
           d="m 95.78,271.2 h 5.32 5.31 5.32 5.32 5.31 5.32 5.32 5.32 5.31 5.32 5.32 5.32 5.31 5.32 5.32 5.32 5.31 5.32 5.32 5.32 5.31 5.32 5.32 5.31 5.32 5.32 5.32 5.31 5.32 5.32 5.32 5.31 5.32 5.32 5.32 5.31 5.32 5.32 5.31 5.32 5.32 5.32 5.31 5.32 5.32 5.32 5.31 5.32 5.32 5.32 5.31 5.32 5.32 5.31 5.32 5.32 5.32 5.31 5.32 5.32 5.32 5.31 5.32 5.32 5.32 5.31 5.32 5.32 5.31 5.32 5.32 5.32 5.31 5.32 5.32 5.32 5.31 5.32 5.32 5.32 5.31 5.32 5.32 5.31 5.32 5.32 5.32 5.31 5.32 5.32 5.32 5.31 5.32 5.32 5.32 5.31 5.32 5.32 5.32" /><path
           id="path122"
           style="fill:none;stroke:#ffffff;stroke-width:2.1400001;stroke-linecap:butt;stroke-linejoin:round;stroke-miterlimit:1;stroke-dasharray:none;stroke-opacity:0.8"
           d="m 95.78,271.2 h 5.32 5.31 5.32 5.32 5.31 5.32 5.32 5.32 5.31 5.32 5.32 5.32 5.31 5.32 5.32 5.32 5.31 5.32 5.32 5.32 5.31 5.32 5.32 5.31 5.32 5.32 5.32 5.31 5.32 5.32 5.32 5.31 5.32 5.32 5.32 5.31 5.32 5.32 5.31 5.32 5.32 5.32 5.31 5.32 5.32 5.32 5.31 5.32 5.32 5.32 5.31 5.32 5.32 5.31 5.32 5.32 5.32 5.31 5.32 5.32 5.32 5.31 5.32 5.32 5.32 5.31 5.32 5.32 5.31 5.32 5.32 5.32 5.31 5.32 5.32 5.32 5.31 5.32 5.32 5.32 5.31 5.32 5.32 5.31 5.32 5.32 5.32 5.31 5.32 5.32 5.32 5.31 5.32 5.32 5.32 5.31 5.32 5.32 5.32" /><path
           id="path124"
           style="fill:none;stroke:#ffffff;stroke-width:2.1400001;stroke-linecap:butt;stroke-linejoin:round;stroke-miterlimit:1;stroke-dasharray:none;stroke-opacity:0.8"
           d="m 95.78,271.2 h 5.32 5.31 5.32 5.32 5.31 5.32 5.32 5.32 5.31 5.32 5.32 5.32 5.31 5.32 5.32 5.32 5.31 5.32 5.32 5.32 5.31 5.32 5.32 5.31 5.32 5.32 5.32 5.31 5.32 5.32 5.32 5.31 5.32 5.32 5.32 5.31 5.32 5.32 5.31 5.32 5.32 5.32 5.31 5.32 5.32 5.32 5.31 5.32 5.32 5.32 5.31 5.32 5.32 5.31 5.32 5.32 5.32 5.31 5.32 5.32 5.32 5.31 5.32 5.32 5.32 5.31 5.32 5.32 5.31 5.32 5.32 5.32 5.31 5.32 5.32 5.32 5.31 5.32 5.32 5.32 5.31 5.32 5.32 5.31 5.32 5.32 5.32 5.31 5.32 5.32 5.32 5.31 5.32 5.32 5.32 5.31 5.32 5.32 5.32" /><path
           id="path126"
           style="fill:none;stroke:#ffac95;stroke-width:4.51999998;stroke-linecap:butt;stroke-linejoin:round;stroke-miterlimit:1;stroke-dasharray:none;stroke-opacity:0.8"
           d="m 95.78,286 5.32,-0.06 5.31,-0.27 5.32,-0.54 5.32,-0.86 5.31,-1.1 5.32,-1.3 5.32,-1.37 5.32,-1.3 5.31,-1.12 5.32,-0.84 5.32,-0.36 5.32,0.15 5.31,0.61 5.32,1.18 5.32,1.78 5.32,2.14 5.31,2.44 5.32,2.58 5.32,2.57 5.32,2.41 5.31,1.99 5.32,1.34 5.32,0.7 5.31,0.04 5.32,-0.57 5.32,-1.15 5.32,-1.61 5.31,-1.98 5.32,-2.23 5.32,-2.35 5.32,-2.34 5.31,-2.28 5.32,-2.2 5.32,-2.14 5.32,-2.07 5.31,-2.04 5.32,-2.07 5.32,-2.17 5.31,-2.36 5.32,-2.5 5.32,-2.77 5.32,-2.99 5.31,-3.17 5.32,-3.29 5.32,-3.29 5.32,-3.18 5.31,-2.92 5.32,-2.61 5.32,-2.17 5.32,-1.43 5.31,-0.72 5.32,-0.13 5.32,0.53 5.31,1.13 5.32,1.52 5.32,1.83 5.32,2.02 5.31,2.12 5.32,2.06 5.32,1.88 5.32,1.63 5.31,1.29 5.32,0.97 5.32,0.83 5.32,0.66 5.31,0.53 5.32,0.38 5.32,0.28 5.31,0.19 5.32,0.13 5.32,0.05 5.32,-0.06 5.31,-0.08 5.32,-0.1 5.32,-0.15 5.32,-0.15 5.31,-0.18 5.32,-0.19 5.32,-0.22 5.32,-0.24 5.31,-0.26 5.32,-0.27 5.32,-0.27 5.31,-0.28 5.32,-0.27 5.32,-0.27 5.32,-0.26 5.31,-0.26 5.32,-0.26 5.32,-0.26 5.32,-0.25 5.31,-0.22 5.32,-0.2 5.32,-0.17 5.32,-0.11 5.31,-0.04 5.32,-0.02 5.32,-0.01 5.32,-0.01" /><path
           id="path128"
           style="fill:none;stroke:#ffffff;stroke-width:2.1400001;stroke-linecap:butt;stroke-linejoin:round;stroke-miterlimit:1;stroke-dasharray:none;stroke-opacity:0.8"
           d="m 95.78,271.2 h 5.32 5.31 5.32 5.32 5.31 5.32 5.32 5.32 5.31 5.32 5.32 5.32 5.31 5.32 5.32 5.32 5.31 5.32 5.32 5.32 5.31 5.32 5.32 5.31 5.32 5.32 5.32 5.31 5.32 5.32 5.32 5.31 5.32 5.32 5.32 5.31 5.32 5.32 5.31 5.32 5.32 5.32 5.31 5.32 5.32 5.32 5.31 5.32 5.32 5.32 5.31 5.32 5.32 5.31 5.32 5.32 5.32 5.31 5.32 5.32 5.32 5.31 5.32 5.32 5.32 5.31 5.32 5.32 5.31 5.32 5.32 5.32 5.31 5.32 5.32 5.32 5.31 5.32 5.32 5.32 5.31 5.32 5.32 5.31 5.32 5.32 5.32 5.31 5.32 5.32 5.32 5.31 5.32 5.32 5.32 5.31 5.32 5.32 5.32" /><path
           id="path130"
           style="fill:none;stroke:#fff7f4;stroke-width:2.66000009;stroke-linecap:butt;stroke-linejoin:round;stroke-miterlimit:1;stroke-dasharray:none;stroke-opacity:0.8"
           d="m 95.78,267.63 h 5.32 l 5.31,-0.01 h 5.32 5.32 5.31 5.32 5.32 l 5.32,0.01 5.31,0.02 5.32,0.02 5.32,0.05 5.32,0.07 5.31,0.08 5.32,0.12 5.32,0.14 5.32,0.17 5.31,0.19 5.32,0.22 5.32,0.24 5.32,0.26 5.31,0.27 5.32,0.3 5.32,0.31 5.31,0.3 5.32,0.31 5.32,0.29 5.32,0.29 5.31,0.27 5.32,0.24 5.32,0.23 5.32,0.2 5.31,0.19 5.32,0.17 5.32,0.16 5.32,0.15 5.31,0.15 5.32,0.13 5.32,0.12 5.31,0.11 5.32,0.1 5.32,0.09 5.32,0.07 5.31,0.07 5.32,0.05 5.32,0.04 5.32,0.02 h 5.31 5.32 l 5.32,-0.01 5.32,-0.03 5.31,-0.03 5.32,-0.04 5.32,-0.04 5.31,-0.04 5.32,-0.05 5.32,-0.04 5.32,-0.04 5.31,-0.04 5.32,-0.03 5.32,-0.02 5.32,-0.02 5.31,-0.02 5.32,-0.01 5.32,-0.01 5.32,-0.01 h 5.31 l 5.32,-0.01 5.32,-0.01 h 5.31 5.32 l 5.32,-0.01 h 5.32 5.31 l 5.32,-0.01 h 5.32 5.32 5.31 5.32 5.32 l 5.32,-0.01 h 5.31 5.32 5.32 5.31 5.32 5.32 5.32 5.31 5.32 5.32 5.32 5.31 5.32 5.32 5.32 5.31 5.32 5.32 5.32" /><path
           id="path132"
           style="fill:none;stroke:#ffc7b6;stroke-width:3.83999991;stroke-linecap:butt;stroke-linejoin:round;stroke-miterlimit:1;stroke-dasharray:none;stroke-opacity:0.8"
           d="m 95.78,299.39 5.32,0.01 5.31,0.07 5.32,0.11 5.32,0.15 5.31,0.14 5.32,0.05 5.32,-0.07 5.32,-0.23 5.31,-0.47 5.32,-0.69 5.32,-0.99 5.32,-1.23 5.31,-1.39 5.32,-1.52 5.32,-1.58 5.32,-1.56 5.31,-1.46 5.32,-1.32 5.32,-1.15 5.32,-0.97 5.31,-0.73 5.32,-0.48 5.32,-0.33 5.31,-0.28 5.32,-0.29 5.32,-0.4 5.32,-0.54 5.31,-0.76 5.32,-0.99 5.32,-1.23 5.32,-1.43 5.31,-1.56 5.32,-1.63 5.32,-1.65 5.32,-1.64 5.31,-1.62 5.32,-1.56 5.32,-1.49 5.31,-1.46 5.32,-1.44 5.32,-1.46 5.32,-1.52 5.31,-1.59 5.32,-1.69 5.32,-1.8 5.32,-1.91 5.31,-1.99 5.32,-2.02 5.32,-2.01 5.32,-1.96 5.31,-1.87 5.32,-1.77 5.32,-1.61 5.31,-1.45 5.32,-1.32 5.32,-1.18 5.32,-1.05 5.31,-0.9 5.32,-0.71 5.32,-0.6 5.32,-0.53 5.31,-0.49 5.32,-0.47 5.32,-0.46 5.32,-0.46 5.31,-0.46 5.32,-0.45 5.32,-0.46 5.31,-0.45 5.32,-0.45 5.32,-0.45 5.32,-0.44 5.31,-0.43 5.32,-0.44 5.32,-0.42 5.32,-0.42 5.31,-0.42 5.32,-0.41 5.32,-0.38 5.32,-0.37 5.31,-0.35 5.32,-0.32 5.32,-0.32 5.31,-0.32 5.32,-0.31 5.32,-0.3 5.32,-0.3 5.31,-0.28 5.32,-0.28 5.32,-0.27 5.32,-0.28 5.31,-0.23 5.32,-0.21 5.32,-0.18 5.32,-0.11 5.31,-0.04 5.32,-0.02 5.32,-0.02 h 5.32" /><path
           id="path134"
           style="fill:none;stroke:#ffffff;stroke-width:2.1400001;stroke-linecap:butt;stroke-linejoin:round;stroke-miterlimit:1;stroke-dasharray:none;stroke-opacity:0.8"
           d="m 95.78,271.2 h 5.32 5.31 5.32 5.32 5.31 5.32 5.32 5.32 5.31 5.32 5.32 5.32 5.31 5.32 5.32 5.32 5.31 5.32 5.32 5.32 5.31 5.32 5.32 5.31 5.32 5.32 5.32 5.31 5.32 5.32 5.32 5.31 5.32 5.32 5.32 5.31 5.32 5.32 5.31 5.32 5.32 5.32 5.31 5.32 5.32 5.32 5.31 5.32 5.32 5.32 5.31 5.32 5.32 5.31 5.32 5.32 5.32 5.31 5.32 5.32 5.32 5.31 5.32 5.32 5.32 5.31 5.32 5.32 5.31 5.32 5.32 5.32 5.31 5.32 5.32 5.32 5.31 5.32 5.32 5.32 5.31 5.32 5.32 5.31 5.32 5.32 5.32 5.31 5.32 5.32 5.32 5.31 5.32 5.32 5.32 5.31 5.32 5.32 5.32" /><path
           id="path136"
           style="fill:none;stroke:#ffcdbe;stroke-width:3.69000006;stroke-linecap:butt;stroke-linejoin:round;stroke-miterlimit:1;stroke-dasharray:none;stroke-opacity:0.8"
           d="m 95.78,261.66 5.32,-0.01 5.31,-0.05 5.32,-0.1 5.32,-0.17 5.31,-0.24 5.32,-0.33 5.32,-0.4 5.32,-0.45 5.31,-0.5 5.32,-0.52 5.32,-0.51 5.32,-0.46 5.31,-0.39 5.32,-0.25 5.32,-0.04 5.32,0.13 5.31,0.35 5.32,0.57 5.32,0.76 5.32,0.93 5.31,1.11 5.32,1.3 5.32,1.37 5.31,1.38 5.32,1.33 5.32,1.25 5.32,1.11 5.31,0.98 5.32,0.81 5.32,0.68 5.32,0.59 5.31,0.54 5.32,0.54 5.32,0.57 5.32,0.63 5.31,0.7 5.32,0.82 5.32,0.92 5.31,1.02 5.32,1.06 5.32,1.08 5.32,1.04 5.31,0.98 5.32,0.88 5.32,0.73 5.32,0.56 5.31,0.39 5.32,0.25 5.32,0.13 5.32,-0.01 5.31,-0.13 5.32,-0.2 5.32,-0.24 5.31,-0.26 5.32,-0.27 5.32,-0.26 5.32,-0.23 5.31,-0.19 5.32,-0.13 5.32,-0.09 5.32,-0.05 5.31,-0.02 h 5.32 5.32 5.32 l 5.31,0.01 5.32,0.01 h 5.32 l 5.31,0.01 h 5.32 l 5.32,0.01 h 5.32 5.31 5.32 5.32 5.32 l 5.31,-0.01 h 5.32 l 5.32,-0.01 h 5.32 l 5.31,-0.01 5.32,-0.01 5.32,-0.01 5.31,-0.01 5.32,-0.01 5.32,-0.01 h 5.32 l 5.31,-0.01 5.32,-0.01 5.32,-0.01 5.32,-0.01 5.31,-0.01 h 5.32 l 5.32,-0.01 h 5.32 l 5.31,-0.01 h 5.32 5.32 5.32" /><path
           id="path138"
           style="fill:none;stroke:#f85e3e;stroke-width:7.17999983;stroke-linecap:butt;stroke-linejoin:round;stroke-miterlimit:1;stroke-dasharray:none;stroke-opacity:0.8"
           d="m 95.78,377.43 5.32,0.08 5.31,0.36 5.32,0.7 5.32,1.05 5.31,1.25 5.32,1.26 5.32,1.09 5.32,0.7 5.31,0.08 5.32,-0.63 5.32,-1.68 5.32,-2.69 5.31,-3.58 5.32,-4.56 5.32,-5.64 5.32,-6.29 5.31,-6.97 5.32,-7.52 5.32,-7.92 5.32,-8.28 5.31,-8.74 5.32,-9.29 5.32,-9.77 5.31,-10.25 5.32,-10.73 5.32,-11.18 5.32,-11.52 5.31,-11.71 5.32,-11.68 5.32,-11.28 5.32,-10.49 5.31,-9.43 5.32,-8.43 5.32,-7.27 5.32,-5.61 5.31,-4.04 5.32,-1.84 5.32,0.42 5.31,2.72 5.32,4.06 5.32,5.59 5.32,6.6 5.31,7.18 5.32,7.36 5.32,7.09 5.32,6.44 5.31,5.55 5.32,4.67 5.32,3.63 5.32,2.11 5.31,0.76 5.32,-0.24 5.32,-1.26 5.31,-2.11 5.32,-2.64 5.32,-3.01 5.32,-3.22 5.31,-3.29 5.32,-3.15 5.32,-2.91 5.32,-2.64 5.31,-2.27 5.32,-1.95 5.32,-1.81 5.32,-1.64 5.31,-1.51 5.32,-1.38 5.32,-1.26 5.31,-1.17 5.32,-1.11 5.32,-1.02 5.32,-0.89 5.31,-0.87 5.32,-0.83 5.32,-0.78 5.32,-0.76 5.31,-0.74 5.32,-0.69 5.32,-0.62 5.32,-0.56 5.31,-0.48 5.32,-0.44 5.32,-0.42 5.31,-0.42 5.32,-0.4 5.32,-0.38 5.32,-0.36 5.31,-0.36 5.32,-0.34 5.32,-0.34 5.32,-0.34 5.31,-0.28 5.32,-0.25 5.32,-0.22 5.32,-0.13 5.31,-0.05 5.32,-0.03 5.32,-0.02 h 5.32" /><path
           id="path140"
           style="fill:none;stroke:#ffc2af;stroke-width:3.96000004;stroke-linecap:butt;stroke-linejoin:round;stroke-miterlimit:1;stroke-dasharray:none;stroke-opacity:0.8"
           d="m 95.78,226.65 5.32,0.05 5.31,0.27 5.32,0.55 5.32,0.85 5.31,1.11 5.32,1.31 5.32,1.4 5.32,1.4 5.31,1.32 5.32,1.19 5.32,0.97 5.32,0.76 5.31,0.6 5.32,0.44 5.32,0.32 5.32,0.3 5.31,0.36 5.32,0.49 5.32,0.66 5.32,0.89 5.31,1.23 5.32,1.68 5.32,2.02 5.31,2.33 5.32,2.56 5.32,2.76 5.32,2.9 5.31,2.99 5.32,3.06 5.32,3.1 5.32,3.12 5.31,3.14 5.32,3.14 5.32,3.15 5.32,3.14 5.31,3.14 5.32,3.08 5.32,3.01 5.31,2.88 5.32,2.76 5.32,2.52 5.32,2.28 5.31,2.01 5.32,1.72 5.32,1.38 5.32,1.02 5.31,0.71 5.32,0.51 5.32,0.31 5.32,0.13 5.31,-0.01 5.32,-0.07 5.32,-0.1 5.31,-0.1 5.32,-0.09 5.32,-0.05 5.32,-0.01 5.31,0.05 5.32,0.12 5.32,0.15 5.32,0.18 5.31,0.17 5.32,0.16 5.32,0.16 5.32,0.14 5.31,0.12 5.32,0.11 5.32,0.1 5.31,0.08 5.32,0.08 5.32,0.06 5.32,0.04 5.31,0.04 5.32,0.03 5.32,0.03 5.32,0.02 5.31,0.02 5.32,0.01 h 5.32 5.32 l 5.31,-0.02 5.32,-0.02 5.32,-0.02 5.31,-0.02 5.32,-0.02 5.32,-0.02 5.32,-0.02 5.31,-0.03 5.32,-0.02 5.32,-0.02 5.32,-0.03 5.31,-0.02 5.32,-0.02 5.32,-0.02 5.32,-0.01 h 5.31 l 5.32,-0.01 h 5.32 5.32" /><path
           id="path142"
           style="fill:none;stroke:#ffffff;stroke-width:2.1400001;stroke-linecap:butt;stroke-linejoin:round;stroke-miterlimit:1;stroke-dasharray:none;stroke-opacity:0.8"
           d="m 95.78,271.2 h 5.32 5.31 5.32 5.32 5.31 5.32 5.32 5.32 5.31 5.32 5.32 5.32 5.31 5.32 5.32 5.32 5.31 5.32 5.32 5.32 5.31 5.32 5.32 5.31 5.32 5.32 5.32 5.31 5.32 5.32 5.32 5.31 5.32 5.32 5.32 5.31 5.32 5.32 5.31 5.32 5.32 5.32 5.31 5.32 5.32 5.32 5.31 5.32 5.32 5.32 5.31 5.32 5.32 5.31 5.32 5.32 5.32 5.31 5.32 5.32 5.32 5.31 5.32 5.32 5.32 5.31 5.32 5.32 5.31 5.32 5.32 5.32 5.31 5.32 5.32 5.32 5.31 5.32 5.32 5.32 5.31 5.32 5.32 5.31 5.32 5.32 5.32 5.31 5.32 5.32 5.32 5.31 5.32 5.32 5.32 5.31 5.32 5.32 5.32" /><path
           id="path144"
           style="fill:none;stroke:#ffffff;stroke-width:2.13000011;stroke-linecap:butt;stroke-linejoin:round;stroke-miterlimit:1;stroke-dasharray:none;stroke-opacity:0.8"
           d="m 95.78,271.2 h 5.32 5.31 5.32 5.32 5.31 5.32 5.32 5.32 5.31 5.32 5.32 5.32 5.31 5.32 5.32 5.32 5.31 5.32 5.32 5.32 5.31 5.32 5.32 5.31 5.32 5.32 5.32 5.31 5.32 5.32 5.32 5.31 5.32 5.32 5.32 5.31 5.32 5.32 5.31 5.32 5.32 5.32 5.31 5.32 5.32 5.32 5.31 5.32 5.32 5.32 5.31 5.32 5.32 5.31 5.32 5.32 5.32 5.31 5.32 5.32 5.32 5.31 5.32 5.32 5.32 5.31 5.32 5.32 5.31 5.32 5.32 5.32 5.31 5.32 5.32 5.32 5.31 5.32 5.32 5.32 5.31 5.32 5.32 5.31 5.32 5.32 5.32 5.31 5.32 5.32 5.32 5.31 5.32 5.32 5.32 5.31 5.32 5.32 5.32" /><path
           id="path146"
           style="fill:none;stroke:#ff8b6e;stroke-width:5.51999998;stroke-linecap:butt;stroke-linejoin:round;stroke-miterlimit:1;stroke-dasharray:none;stroke-opacity:0.8"
           d="m 95.78,340.37 5.32,-0.09 5.31,-0.43 5.32,-0.89 5.32,-1.53 5.31,-2.19 5.32,-3.04 5.32,-3.75 5.32,-4.45 5.31,-5.22 5.32,-5.89 5.32,-6.61 5.32,-7.17 5.31,-7.48 5.32,-7.64 5.32,-7.6 5.32,-7.39 5.31,-6.92 5.32,-6.3 5.32,-5.64 5.32,-4.84 5.31,-3.69 5.32,-2.29 5.32,-1.19 5.31,-0.24 5.32,0.53 5.32,1.18 5.32,1.64 5.31,1.96 5.32,2.18 5.32,2.26 5.32,2.27 5.31,2.2 5.32,2.14 5.32,2.04 5.32,1.9 5.31,1.78 5.32,1.57 5.32,1.33 5.31,1.07 5.32,0.87 5.32,0.57 5.32,0.31 5.31,0.07 5.32,-0.14 5.32,-0.33 5.32,-0.47 5.31,-0.54 5.32,-0.53 5.32,-0.47 5.32,-0.29 5.31,-0.1 5.32,0.09 5.32,0.31 5.31,0.52 5.32,0.66 5.32,0.77 5.32,0.84 5.31,0.87 5.32,0.83 5.32,0.74 5.32,0.61 5.31,0.46 5.32,0.29 5.32,0.23 5.32,0.16 5.31,0.08 5.32,0.03 5.32,-0.03 5.31,-0.08 5.32,-0.09 5.32,-0.13 5.32,-0.18 5.31,-0.19 5.32,-0.2 5.32,-0.22 5.32,-0.21 5.31,-0.23 5.32,-0.23 5.32,-0.23 5.32,-0.24 5.31,-0.23 5.32,-0.24 5.32,-0.23 5.31,-0.23 5.32,-0.23 5.32,-0.22 5.32,-0.22 5.31,-0.22 5.32,-0.21 5.32,-0.21 5.32,-0.2 5.31,-0.19 5.32,-0.15 5.32,-0.14 5.32,-0.09 5.31,-0.03 5.32,-0.01 5.32,-0.02 h 5.32" /><path
           id="path148"
           style="fill:none;stroke:#f55132;stroke-width:7.69000006;stroke-linecap:butt;stroke-linejoin:round;stroke-miterlimit:1;stroke-dasharray:none;stroke-opacity:0.8"
           d="m 95.78,313.47 5.32,0.12 5.31,0.57 5.32,1.1 5.32,1.64 5.31,1.95 5.32,1.97 5.32,1.74 5.32,1.22 5.31,0.47 5.32,-0.29 5.32,-1.22 5.32,-1.93 5.31,-2.26 5.32,-2.3 5.32,-1.89 5.32,-1.34 5.31,-0.4 5.32,0.62 5.32,1.5 5.32,2.26 5.31,2.88 5.32,3.08 5.32,2.47 5.31,1.25 5.32,-0.63 5.32,-3.03 5.32,-5.66 5.31,-8.49 5.32,-11.39 5.32,-13.72 5.32,-15.28 5.31,-15.81 5.32,-15.57 5.32,-14.64 5.32,-12.88 5.31,-10.87 5.32,-7.74 5.32,-4.24 5.31,-0.56 5.32,1.68 5.32,4.33 5.32,6.15 5.31,7.29 5.32,7.78 5.32,7.63 5.32,6.95 5.31,5.9 5.32,4.9 5.32,3.71 5.32,2.07 5.31,0.69 5.32,-0.24 5.32,-1.09 5.31,-1.7 5.32,-1.99 5.32,-2.09 5.32,-2.04 5.31,-1.75 5.32,-1.19 5.32,-0.72 5.32,-0.37 5.31,-0.02 5.32,0.23 5.32,0.31 5.32,0.38 5.31,0.43 5.32,0.46 5.32,0.46 5.31,0.47 5.32,0.47 5.32,0.45 5.32,0.42 5.31,0.42 5.32,0.41 5.32,0.39 5.32,0.38 5.31,0.37 5.32,0.35 5.32,0.31 5.32,0.28 5.31,0.23 5.32,0.21 5.32,0.2 5.31,0.2 5.32,0.19 5.32,0.17 5.32,0.17 5.31,0.17 5.32,0.15 5.32,0.16 5.32,0.15 5.31,0.13 5.32,0.11 5.32,0.09 5.32,0.06 5.31,0.02 5.32,0.01 h 5.32 l 5.32,0.01" /><path
           id="path150"
           style="fill:none;stroke:#ff977b;stroke-width:5.1500001;stroke-linecap:butt;stroke-linejoin:round;stroke-miterlimit:1;stroke-dasharray:none;stroke-opacity:0.8"
           d="m 95.78,324.17 5.32,-0.14 5.31,-0.69 5.32,-1.36 5.32,-2.15 5.31,-2.74 5.32,-3.2 5.32,-3.35 5.32,-3.24 5.31,-2.91 5.32,-2.45 5.32,-1.73 5.32,-1.03 5.31,-0.47 5.32,0.08 5.32,0.54 5.32,0.71 5.31,0.71 5.32,0.53 5.32,0.26 5.32,-0.1 5.31,-0.65 5.32,-1.28 5.32,-1.68 5.31,-1.92 5.32,-1.97 5.32,-1.87 5.32,-1.66 5.31,-1.37 5.32,-1.05 5.32,-0.83 5.32,-0.76 5.31,-0.89 5.32,-1.13 5.32,-1.49 5.32,-2.09 5.31,-2.69 5.32,-3.58 5.32,-4.49 5.31,-5.38 5.32,-5.85 5.32,-6.3 5.32,-6.48 5.31,-6.4 5.32,-6.1 5.32,-5.51 5.32,-4.7 5.31,-3.82 5.32,-3.09 5.32,-2.3 5.32,-1.26 5.31,-0.39 5.32,0.21 5.32,0.75 5.31,1.16 5.32,1.38 5.32,1.48 5.32,1.51 5.31,1.39 5.32,1.13 5.32,0.88 5.32,0.67 5.31,0.45 5.32,0.26 5.32,0.2 5.32,0.13 5.31,0.07 5.32,0.04 h 5.32 l 5.31,-0.01 5.32,-0.03 5.32,-0.05 5.32,-0.06 5.31,-0.06 5.32,-0.07 5.32,-0.07 5.32,-0.06 5.31,-0.07 5.32,-0.07 5.32,-0.07 5.32,-0.06 5.31,-0.05 5.32,-0.05 5.32,-0.05 5.31,-0.04 5.32,-0.05 5.32,-0.04 5.32,-0.04 5.31,-0.04 5.32,-0.04 5.32,-0.04 5.32,-0.04 5.31,-0.03 5.32,-0.03 5.32,-0.02 5.32,-0.01 h 5.31 l 5.32,-0.01 h 5.32 5.32" /><path
           id="path152"
           style="fill:none;stroke:#ffffff;stroke-width:2.1400001;stroke-linecap:butt;stroke-linejoin:round;stroke-miterlimit:1;stroke-dasharray:none;stroke-opacity:0.8"
           d="m 95.78,271.2 h 5.32 5.31 5.32 5.32 5.31 5.32 5.32 5.32 5.31 5.32 5.32 5.32 5.31 5.32 5.32 5.32 5.31 5.32 5.32 5.32 5.31 5.32 5.32 5.31 5.32 5.32 5.32 5.31 5.32 5.32 5.32 5.31 5.32 5.32 5.32 5.31 5.32 5.32 5.31 5.32 5.32 5.32 5.31 5.32 5.32 5.32 5.31 5.32 5.32 5.32 5.31 5.32 5.32 5.31 5.32 5.32 5.32 5.31 5.32 5.32 5.32 5.31 5.32 5.32 5.32 5.31 5.32 5.32 5.31 5.32 5.32 5.32 5.31 5.32 5.32 5.32 5.31 5.32 5.32 5.32 5.31 5.32 5.32 5.31 5.32 5.32 5.32 5.31 5.32 5.32 5.32 5.31 5.32 5.32 5.32 5.31 5.32 5.32 5.32" /><path
           id="path154"
           style="fill:none;stroke:#ffffff;stroke-width:2.1400001;stroke-linecap:butt;stroke-linejoin:round;stroke-miterlimit:1;stroke-dasharray:none;stroke-opacity:0.8"
           d="m 95.78,271.2 h 5.32 5.31 5.32 5.32 5.31 5.32 5.32 5.32 5.31 5.32 5.32 5.32 5.31 5.32 5.32 5.32 5.31 5.32 5.32 5.32 5.31 5.32 5.32 5.31 5.32 5.32 5.32 5.31 5.32 5.32 5.32 5.31 5.32 5.32 5.32 5.31 5.32 5.32 5.31 5.32 5.32 5.32 5.31 5.32 5.32 5.32 5.31 5.32 5.32 5.32 5.31 5.32 5.32 5.31 5.32 5.32 5.32 5.31 5.32 5.32 5.32 5.31 5.32 5.32 5.32 5.31 5.32 5.32 5.31 5.32 5.32 5.32 5.31 5.32 5.32 5.32 5.31 5.32 5.32 5.32 5.31 5.32 5.32 5.31 5.32 5.32 5.32 5.31 5.32 5.32 5.32 5.31 5.32 5.32 5.32 5.31 5.32 5.32 5.32" /><path
           id="path156"
           style="fill:none;stroke:#ffc8b7;stroke-width:3.80999994;stroke-linecap:butt;stroke-linejoin:round;stroke-miterlimit:1;stroke-dasharray:none;stroke-opacity:0.8"
           d="m 95.78,290.26 5.32,0.01 5.31,0.08 5.32,0.14 5.32,0.21 5.31,0.25 5.32,0.24 5.32,0.21 5.32,0.13 5.31,-0.01 5.32,-0.15 5.32,-0.36 5.32,-0.57 5.31,-0.72 5.32,-0.9 5.32,-1.08 5.32,-1.16 5.31,-1.24 5.32,-1.29 5.32,-1.3 5.32,-1.3 5.31,-1.28 5.32,-1.26 5.32,-1.25 5.31,-1.24 5.32,-1.26 5.32,-1.27 5.32,-1.28 5.31,-1.28 5.32,-1.26 5.32,-1.21 5.32,-1.11 5.31,-1 5.32,-0.9 5.32,-0.79 5.32,-0.64 5.31,-0.51 5.32,-0.35 5.32,-0.19 5.31,-0.08 5.32,-0.03 5.32,-0.03 5.32,-0.06 5.31,-0.15 5.32,-0.25 5.32,-0.42 5.32,-0.59 5.31,-0.75 5.32,-0.87 5.32,-0.97 5.32,-1.06 5.31,-1.11 5.32,-1.11 5.32,-1.08 5.31,-1.03 5.32,-0.96 5.32,-0.87 5.32,-0.78 5.31,-0.62 5.32,-0.42 5.32,-0.26 5.32,-0.16 5.31,-0.05 5.32,0.01 5.32,0.03 5.32,0.06 5.31,0.08 5.32,0.08 5.32,0.09 5.31,0.09 5.32,0.1 5.32,0.1 5.32,0.09 5.31,0.1 5.32,0.09 5.32,0.09 5.32,0.09 5.31,0.09 5.32,0.08 5.32,0.08 5.32,0.07 5.31,0.07 5.32,0.06 5.32,0.06 5.31,0.05 5.32,0.06 5.32,0.05 5.32,0.05 5.31,0.05 5.32,0.05 5.32,0.05 5.32,0.05 5.31,0.04 5.32,0.03 5.32,0.03 5.32,0.02 5.31,0.01 h 5.32 5.32 5.32" /><path
           id="path158"
           style="fill:none;stroke:#ffb49e;stroke-width:4.32000017;stroke-linecap:butt;stroke-linejoin:round;stroke-miterlimit:1;stroke-dasharray:none;stroke-opacity:0.8"
           d="m 95.78,281.72 5.32,0.04 5.31,0.18 5.32,0.36 5.32,0.58 5.31,0.75 5.32,0.9 5.32,0.96 5.32,0.94 5.31,0.86 5.32,0.71 5.32,0.45 5.32,0.16 5.31,-0.13 5.32,-0.46 5.32,-0.86 5.32,-1.1 5.31,-1.32 5.32,-1.45 5.32,-1.49 5.32,-1.43 5.31,-1.23 5.32,-0.88 5.32,-0.5 5.31,-0.1 5.32,0.3 5.32,0.68 5.32,0.97 5.31,1.2 5.32,1.32 5.32,1.27 5.32,1.07 5.31,0.77 5.32,0.47 5.32,0.13 5.32,-0.36 5.31,-0.8 5.32,-1.4 5.32,-2 5.31,-2.59 5.32,-2.91 5.32,-3.24 5.32,-3.44 5.31,-3.51 5.32,-3.49 5.32,-3.34 5.32,-3.1 5.31,-2.83 5.32,-2.58 5.32,-2.3 5.32,-1.91 5.31,-1.57 5.32,-1.32 5.32,-1.07 5.31,-0.83 5.32,-0.69 5.32,-0.56 5.32,-0.46 5.31,-0.35 5.32,-0.22 5.32,-0.14 5.32,-0.1 5.31,-0.05 5.32,-0.02 h 5.32 5.32 l 5.31,0.02 5.32,0.02 5.32,0.02 5.31,0.04 5.32,0.03 5.32,0.04 5.32,0.04 5.31,0.04 5.32,0.05 5.32,0.04 5.32,0.04 5.31,0.05 5.32,0.04 5.32,0.04 5.32,0.04 5.31,0.04 5.32,0.04 5.32,0.04 5.31,0.03 5.32,0.04 5.32,0.03 5.32,0.04 5.31,0.03 5.32,0.03 5.32,0.03 5.32,0.03 5.31,0.03 5.32,0.03 5.32,0.02 5.32,0.01 h 5.31 5.32 l 5.32,0.01 h 5.32" /><path
           id="path160"
           style="fill:none;stroke:#ffffff;stroke-width:2.1400001;stroke-linecap:butt;stroke-linejoin:round;stroke-miterlimit:1;stroke-dasharray:none;stroke-opacity:0.8"
           d="m 95.78,271.2 h 5.32 5.31 5.32 5.32 5.31 5.32 5.32 5.32 5.31 5.32 5.32 5.32 5.31 5.32 5.32 5.32 5.31 5.32 5.32 5.32 5.31 5.32 5.32 5.31 5.32 5.32 5.32 5.31 5.32 5.32 5.32 5.31 5.32 5.32 5.32 5.31 5.32 5.32 5.31 5.32 5.32 5.32 5.31 5.32 5.32 5.32 5.31 5.32 5.32 5.32 5.31 5.32 5.32 5.31 5.32 5.32 5.32 5.31 5.32 5.32 5.32 5.31 5.32 5.32 5.32 5.31 5.32 5.32 5.31 5.32 5.32 5.32 5.31 5.32 5.32 5.32 5.31 5.32 5.32 5.32 5.31 5.32 5.32 5.31 5.32 5.32 5.32 5.31 5.32 5.32 5.32 5.31 5.32 5.32 5.32 5.31 5.32 5.32 5.32" /><path
           id="path162"
           style="fill:none;stroke:#ffffff;stroke-width:2.1500001;stroke-linecap:butt;stroke-linejoin:round;stroke-miterlimit:1;stroke-dasharray:none;stroke-opacity:0.8"
           d="m 95.78,271.2 h 5.32 5.31 5.32 5.32 5.31 5.32 5.32 5.32 5.31 5.32 5.32 5.32 5.31 5.32 5.32 5.32 5.31 5.32 5.32 5.32 5.31 5.32 5.32 5.31 5.32 5.32 5.32 5.31 5.32 5.32 5.32 5.31 5.32 5.32 5.32 5.31 5.32 5.32 5.31 5.32 5.32 5.32 5.31 5.32 5.32 5.32 5.31 5.32 5.32 5.32 5.31 5.32 5.32 5.31 5.32 5.32 5.32 5.31 5.32 5.32 5.32 5.31 5.32 5.32 5.32 5.31 5.32 5.32 5.31 5.32 5.32 5.32 5.31 5.32 5.32 5.32 5.31 5.32 5.32 5.32 5.31 5.32 5.32 5.31 5.32 5.32 5.32 5.31 5.32 5.32 5.32 5.31 5.32 5.32 5.32 5.31 5.32 5.32 5.32" /><path
           id="path164"
           style="fill:none;stroke:#f24427;stroke-width:8.18999958;stroke-linecap:butt;stroke-linejoin:round;stroke-miterlimit:1;stroke-dasharray:none;stroke-opacity:0.8"
           d="m 95.78,434.29 5.32,-0.5 5.31,-2.42 5.32,-4.91 5.32,-8.03 5.31,-10.72 5.32,-13.56 5.32,-15.33 5.32,-16.42 5.31,-17.06 5.32,-17.1 5.32,-16.38 5.32,-15.3 5.31,-14.05 5.32,-12.36 5.32,-10.31 5.32,-9.02 5.31,-7.75 5.32,-6.88 5.32,-6.48 5.32,-6.43 5.31,-6.85 5.32,-7.62 5.32,-8.32 5.31,-8.82 5.32,-8.93 5.32,-8.54 5.32,-7.53 5.31,-5.71 5.32,-3.04 5.32,0.3 5.32,4.03 5.31,7.46 5.32,9.81 5.32,11.65 5.32,13.62 5.31,14.76 5.32,15.62 5.32,15.61 5.31,14.76 5.32,13.66 5.32,11.33 5.32,8.88 5.31,6.26 5.32,3.72 5.32,1.03 5.32,-1.39 5.31,-3.12 5.32,-3.9 5.32,-4.17 5.32,-3.8 5.31,-2.99 5.32,-2.04 5.32,-0.71 5.31,0.64 5.32,1.61 5.32,2.45 5.32,3.06 5.31,3.48 5.32,3.55 5.32,3.21 5.32,2.63 5.31,1.77 5.32,0.94 5.32,0.57 5.32,0.14 5.31,-0.23 5.32,-0.59 5.32,-0.86 5.31,-1.1 5.32,-1.23 5.32,-1.42 5.32,-1.67 5.31,-1.72 5.32,-1.76 5.32,-1.83 5.32,-1.85 5.31,-1.87 5.32,-1.87 5.32,-1.89 5.32,-1.86 5.31,-1.81 5.32,-1.77 5.32,-1.76 5.31,-1.75 5.32,-1.72 5.32,-1.67 5.32,-1.64 5.31,-1.61 5.32,-1.55 5.32,-1.56 5.32,-1.53 5.31,-1.34 5.32,-1.18 5.32,-1.04 5.32,-0.61 5.31,-0.25 5.32,-0.09 5.32,-0.1 5.32,-0.03" /><path
           id="path166"
           style="fill:none;stroke:#ffc6b4;stroke-width:3.8599999;stroke-linecap:butt;stroke-linejoin:round;stroke-miterlimit:1;stroke-dasharray:none;stroke-opacity:0.8"
           d="m 95.78,285.19 5.32,0.03 5.31,0.18 5.32,0.35 5.32,0.55 5.31,0.71 5.32,0.85 5.32,0.92 5.32,0.93 5.31,0.89 5.32,0.83 5.32,0.71 5.32,0.59 5.31,0.48 5.32,0.35 5.32,0.21 5.32,0.13 5.31,0.02 5.32,-0.06 5.32,-0.15 5.32,-0.24 5.31,-0.39 5.32,-0.6 5.32,-0.81 5.31,-1.02 5.32,-1.25 5.32,-1.49 5.32,-1.72 5.31,-1.94 5.32,-2.14 5.32,-2.3 5.32,-2.39 5.31,-2.44 5.32,-2.44 5.32,-2.41 5.32,-2.35 5.31,-2.28 5.32,-2.19 5.32,-2.09 5.31,-2.01 5.32,-1.95 5.32,-1.89 5.32,-1.85 5.31,-1.8 5.32,-1.76 5.32,-1.67 5.32,-1.55 5.31,-1.41 5.32,-1.26 5.32,-1.07 5.32,-0.77 5.31,-0.47 5.32,-0.25 5.32,0.03 5.31,0.26 5.32,0.42 5.32,0.55 5.32,0.64 5.31,0.69 5.32,0.69 5.32,0.63 5.32,0.54 5.31,0.41 5.32,0.29 5.32,0.23 5.32,0.17 5.31,0.11 5.32,0.06 5.32,0.02 5.31,-0.02 5.32,-0.04 5.32,-0.07 5.32,-0.12 5.31,-0.12 5.32,-0.13 5.32,-0.15 5.32,-0.15 5.31,-0.16 5.32,-0.16 5.32,-0.17 5.32,-0.18 5.31,-0.18 5.32,-0.18 5.32,-0.18 5.31,-0.18 5.32,-0.18 5.32,-0.17 5.32,-0.18 5.31,-0.17 5.32,-0.16 5.32,-0.17 5.32,-0.16 5.31,-0.14 5.32,-0.13 5.32,-0.11 5.32,-0.07 5.31,-0.03 5.32,-0.01 5.32,-0.01 h 5.32" /><path
           id="path168"
           style="fill:none;stroke:#ffd3c5;stroke-width:3.54999995;stroke-linecap:butt;stroke-linejoin:round;stroke-miterlimit:1;stroke-dasharray:none;stroke-opacity:0.8"
           d="m 95.78,265.09 5.32,-0.03 5.31,-0.13 5.32,-0.28 5.32,-0.45 5.31,-0.62 5.32,-0.81 5.32,-0.93 5.32,-1.03 5.31,-1.1 5.32,-1.13 5.32,-1.11 5.32,-1.05 5.31,-0.94 5.32,-0.77 5.32,-0.52 5.32,-0.31 5.31,-0.06 5.32,0.2 5.32,0.43 5.32,0.64 5.31,0.91 5.32,1.18 5.32,1.36 5.31,1.49 5.32,1.56 5.32,1.61 5.32,1.61 5.31,1.59 5.32,1.55 5.32,1.5 5.32,1.44 5.31,1.39 5.32,1.35 5.32,1.31 5.32,1.26 5.31,1.2 5.32,1.12 5.32,1.01 5.31,0.89 5.32,0.79 5.32,0.65 5.32,0.51 5.31,0.39 5.32,0.29 5.32,0.18 5.32,0.1 5.31,0.05 5.32,0.06 5.32,0.08 5.32,0.14 5.31,0.23 5.32,0.3 5.32,0.4 5.31,0.47 5.32,0.53 5.32,0.56 5.32,0.58 5.31,0.57 5.32,0.51 5.32,0.45 5.32,0.37 5.31,0.27 5.32,0.18 5.32,0.15 5.32,0.11 5.31,0.07 5.32,0.03 5.32,0.01 5.31,-0.01 5.32,-0.02 5.32,-0.05 5.32,-0.07 5.31,-0.07 5.32,-0.08 5.32,-0.09 5.32,-0.09 5.31,-0.09 5.32,-0.1 5.32,-0.1 5.32,-0.1 5.31,-0.1 5.32,-0.1 5.32,-0.11 5.31,-0.1 5.32,-0.1 5.32,-0.1 5.32,-0.1 5.31,-0.09 5.32,-0.09 5.32,-0.1 5.32,-0.09 5.31,-0.08 5.32,-0.07 5.32,-0.06 5.32,-0.04 5.31,-0.01 5.32,-0.01 h 5.32 l 5.32,-0.01" /><path
           id="path170"
           style="fill:none;stroke:#fe7858;stroke-width:6.19999981;stroke-linecap:butt;stroke-linejoin:round;stroke-miterlimit:1;stroke-dasharray:none;stroke-opacity:0.8"
           d="m 95.78,141.02 5.32,-0.56 5.31,-2.66 5.32,-5.13 5.32,-7.55 5.31,-8.76 5.32,-8.35 5.32,-6.67 5.32,-3.34 5.31,1.6 5.32,6.84 5.32,13.91 5.32,20.1 5.31,24.52 5.32,28.2 5.32,30.46 5.32,30.41 5.31,28.22 5.32,24.6 5.32,20.27 5.32,15.09 5.31,7.66 5.32,-0.8 5.32,-6.35 5.31,-10.01 5.32,-11.4 5.32,-10.93 5.32,-8.73 5.31,-5.02 5.32,-0.15 5.32,4.81 5.32,9.2 5.31,12.07 5.32,13.21 5.32,13.09 5.32,11.92 5.31,10 5.32,6.57 5.32,2.47 5.31,-1.98 5.32,-4.67 5.32,-7.77 5.32,-9.76 5.31,-10.79 5.32,-10.98 5.32,-10.26 5.32,-8.94 5.31,-7.32 5.32,-6.03 5.32,-4.71 5.32,-3.22 5.31,-2.21 5.32,-1.75 5.32,-1.64 5.31,-1.81 5.32,-2.11 5.32,-2.55 5.32,-3.02 5.31,-3.57 5.32,-4.17 5.32,-4.32 5.32,-4.15 5.31,-3.68 5.32,-3.13 5.32,-2.84 5.32,-2.45 5.31,-2.09 5.32,-1.69 5.32,-1.39 5.31,-1.09 5.32,-0.9 5.32,-0.64 5.32,-0.23 5.31,-0.16 5.32,-0.06 5.32,0.1 5.32,0.15 5.31,0.21 5.32,0.33 5.32,0.47 5.32,0.59 5.31,0.73 5.32,0.79 5.32,0.82 5.31,0.81 5.32,0.83 5.32,0.83 5.32,0.83 5.31,0.82 5.32,0.81 5.32,0.81 5.32,0.81 5.31,0.72 5.32,0.64 5.32,0.58 5.32,0.35 5.31,0.15 5.32,0.06 5.32,0.06 5.32,0.02" /><path
           id="path172"
           style="fill:none;stroke:#ffccbd;stroke-width:3.71000004;stroke-linecap:butt;stroke-linejoin:round;stroke-miterlimit:1;stroke-dasharray:none;stroke-opacity:0.8"
           d="m 95.78,260.85 h 5.32 l 5.31,0.01 5.32,0.01 5.32,0.02 5.31,0.02 5.32,0.05 5.32,0.05 5.32,0.07 5.31,0.09 5.32,0.11 5.32,0.14 5.32,0.17 5.31,0.19 5.32,0.21 5.32,0.24 5.32,0.25 5.31,0.27 5.32,0.26 5.32,0.25 5.32,0.24 5.31,0.22 5.32,0.17 5.32,0.15 5.31,0.11 5.32,0.11 5.32,0.1 5.32,0.12 5.31,0.16 5.32,0.23 5.32,0.32 5.32,0.44 5.31,0.55 5.32,0.64 5.32,0.73 5.32,0.84 5.31,0.92 5.32,1.04 5.32,1.12 5.31,1.21 5.32,1.24 5.32,1.26 5.32,1.26 5.31,1.23 5.32,1.2 5.32,1.12 5.32,1.05 5.31,0.96 5.32,0.89 5.32,0.82 5.32,0.73 5.31,0.65 5.32,0.59 5.32,0.53 5.31,0.48 5.32,0.44 5.32,0.4 5.32,0.37 5.31,0.32 5.32,0.27 5.32,0.23 5.32,0.19 5.31,0.16 5.32,0.13 5.32,0.11 5.32,0.11 5.31,0.1 5.32,0.08 5.32,0.08 5.31,0.07 5.32,0.06 5.32,0.06 5.32,0.05 5.31,0.05 5.32,0.04 5.32,0.04 5.32,0.04 5.31,0.04 5.32,0.03 5.32,0.04 5.32,0.02 5.31,0.02 5.32,0.02 5.32,0.02 5.31,0.02 5.32,0.02 5.32,0.01 5.32,0.02 5.31,0.01 5.32,0.01 5.32,0.02 5.32,0.01 5.31,0.01 5.32,0.01 5.32,0.01 5.32,0.01 h 5.31 5.32 5.32 5.32" /><path
           id="path174"
           style="fill:none;stroke:#f03b20;stroke-width:8.53999996;stroke-linecap:butt;stroke-linejoin:round;stroke-miterlimit:1;stroke-dasharray:none;stroke-opacity:0.8"
           d="m 95.78,308.38 5.32,0.06 5.31,0.25 5.32,0.43 5.32,0.44 5.31,0.19 5.32,-0.58 5.32,-1.5 5.32,-2.75 5.31,-4.39 5.32,-5.96 5.32,-7.9 5.32,-9.47 5.31,-10.44 5.32,-11.06 5.32,-11.08 5.32,-10.62 5.31,-9.44 5.32,-7.89 5.32,-6.25 5.32,-4.41 5.31,-1.9 5.32,0.88 5.32,2.68 5.31,3.86 5.32,4.33 5.32,4.24 5.32,3.66 5.31,2.68 5.32,1.41 5.32,0.17 5.32,-0.83 5.31,-1.41 5.32,-1.52 5.32,-1.28 5.32,-0.69 5.31,0.07 5.32,1.32 5.32,2.75 5.31,4.26 5.32,5.15 5.32,6.2 5.32,6.88 5.31,7.3 5.32,7.48 5.32,7.44 5.32,7.26 5.31,7.03 5.32,6.85 5.32,6.71 5.32,6.58 5.31,6.54 5.32,6.57 5.32,6.62 5.31,6.68 5.32,6.68 5.32,6.62 5.32,6.46 5.31,6.06 5.32,5.27 5.32,4.53 5.32,3.81 5.31,2.92 5.32,2.15 5.32,1.82 5.32,1.43 5.31,1.13 5.32,0.8 5.32,0.56 5.31,0.35 5.32,0.22 5.32,0.06 5.32,-0.21 5.31,-0.25 5.32,-0.3 5.32,-0.4 5.32,-0.42 5.31,-0.45 5.32,-0.5 5.32,-0.57 5.32,-0.61 5.31,-0.66 5.32,-0.68 5.32,-0.68 5.31,-0.69 5.32,-0.68 5.32,-0.67 5.32,-0.67 5.31,-0.65 5.32,-0.65 5.32,-0.64 5.32,-0.63 5.31,-0.56 5.32,-0.5 5.32,-0.44 5.32,-0.27 5.31,-0.1 5.32,-0.05 5.32,-0.04 5.32,-0.01" /><path
           id="path176"
           style="fill:none;stroke:#f14024;stroke-width:8.35000038;stroke-linecap:butt;stroke-linejoin:round;stroke-miterlimit:1;stroke-dasharray:none;stroke-opacity:0.8"
           d="m 95.78,478.41 5.32,-0.23 5.31,-1.11 5.32,-2.26 5.32,-3.8 5.31,-5.19 5.32,-6.84 5.32,-8.03 5.32,-9.01 5.31,-9.97 5.32,-10.66 5.32,-11.24 5.32,-11.61 5.31,-11.74 5.32,-11.72 5.32,-11.53 5.32,-11.32 5.31,-11.01 5.32,-10.67 5.32,-10.36 5.32,-10.01 5.31,-9.51 5.32,-8.85 5.32,-8.2 5.31,-7.49 5.32,-6.66 5.32,-5.69 5.32,-4.65 5.31,-3.52 5.32,-2.29 5.32,-1.2 5.32,-0.4 5.31,-0.01 5.32,-0.04 5.32,-0.43 5.32,-1.28 5.31,-2.35 5.32,-4.18 5.32,-6.37 5.31,-8.88 5.32,-10.5 5.32,-12.62 5.32,-14.15 5.31,-15.14 5.32,-15.5 5.32,-15.08 5.32,-13.86 5.31,-11.96 5.32,-9.96 5.32,-7.33 5.32,-3.29 5.31,0.5 5.32,3.48 5.32,6.66 5.31,9.41 5.32,11.14 5.32,12.35 5.32,13.03 5.31,13.08 5.32,12.13 5.32,10.87 5.32,9.37 5.31,7.44 5.32,5.71 5.32,4.96 5.32,4.12 5.31,3.39 5.32,2.67 5.32,2.13 5.31,1.66 5.32,1.36 5.32,0.97 5.32,0.39 5.31,0.28 5.32,0.16 5.32,-0.05 5.32,-0.12 5.31,-0.19 5.32,-0.32 5.32,-0.5 5.32,-0.61 5.31,-0.77 5.32,-0.84 5.32,-0.85 5.31,-0.86 5.32,-0.86 5.32,-0.87 5.32,-0.86 5.31,-0.86 5.32,-0.84 5.32,-0.85 5.32,-0.83 5.31,-0.74 5.32,-0.66 5.32,-0.59 5.32,-0.35 5.31,-0.15 5.32,-0.05 5.32,-0.06 5.32,-0.02" /><path
           id="path178"
           style="fill:none;stroke:#ffffff;stroke-width:2.1400001;stroke-linecap:butt;stroke-linejoin:round;stroke-miterlimit:1;stroke-dasharray:none;stroke-opacity:0.8"
           d="m 95.78,271.2 h 5.32 5.31 5.32 5.32 5.31 5.32 5.32 5.32 5.31 5.32 5.32 5.32 5.31 5.32 5.32 5.32 5.31 5.32 5.32 5.32 5.31 5.32 5.32 5.31 5.32 5.32 5.32 5.31 5.32 5.32 5.32 5.31 5.32 5.32 5.32 5.31 5.32 5.32 5.31 5.32 5.32 5.32 5.31 5.32 5.32 5.32 5.31 5.32 5.32 5.32 5.31 5.32 5.32 5.31 5.32 5.32 5.32 5.31 5.32 5.32 5.32 5.31 5.32 5.32 5.32 5.31 5.32 5.32 5.31 5.32 5.32 5.32 5.31 5.32 5.32 5.32 5.31 5.32 5.32 5.32 5.31 5.32 5.32 5.31 5.32 5.32 5.32 5.31 5.32 5.32 5.32 5.31 5.32 5.32 5.32 5.31 5.32 5.32 5.32" /><path
           id="path180"
           style="fill:none;stroke:#000000;stroke-width:1.07000005;stroke-linecap:butt;stroke-linejoin:round;stroke-miterlimit:10;stroke-dasharray:none;stroke-opacity:1"
           d="M 64.47,271.2 H 714.02" /><path
           id="path182"
           style="fill:none;stroke:#7f7f7f;stroke-width:1.07000005;stroke-linecap:round;stroke-linejoin:round;stroke-miterlimit:10;stroke-dasharray:none;stroke-opacity:1"
           d="M 64.47,44.38 H 714.02 V 498.02 H 64.47 Z" /></g></g><g
       id="g184" /><g
       id="g186" /><g
       id="g188" /><g
       id="g190" /><g
       id="g192" /><g
       id="g194"><text
         id="text198"
         style="font-variant:normal;font-weight:normal;font-size:16px;font-family:Helvetica;-inkscape-font-specification:Helvetica;writing-mode:lr-tb;fill:#000000;fill-opacity:1;fill-rule:nonzero;stroke:none"
         transform="matrix(1,0,0,-1,27.51,100.5)"><tspan
           id="tspan196"
           y="0"
           x="0 9.3439999 18.24 22.688">1.0</tspan></text>
<text
         id="text202"
         style="font-variant:normal;font-weight:normal;font-size:16px;font-family:Helvetica;-inkscape-font-specification:Helvetica;writing-mode:lr-tb;fill:#000000;fill-opacity:1;fill-rule:nonzero;stroke:none"
         transform="matrix(1,0,0,-1,27.51,182.98)"><tspan
           id="tspan200"
           y="0"
           x="0 9.3439999 18.24 22.688">0.5</tspan></text>
<text
         id="text206"
         style="font-variant:normal;font-weight:normal;font-size:16px;font-family:Helvetica;-inkscape-font-specification:Helvetica;writing-mode:lr-tb;fill:#000000;fill-opacity:1;fill-rule:nonzero;stroke:none"
         transform="matrix(1,0,0,-1,36.85,265.46)"><tspan
           id="tspan204"
           y="0"
           x="0 8.8959999 13.344">0.0</tspan></text>
<text
         id="text210"
         style="font-variant:normal;font-weight:normal;font-size:16px;font-family:Helvetica;-inkscape-font-specification:Helvetica;writing-mode:lr-tb;fill:#000000;fill-opacity:1;fill-rule:nonzero;stroke:none"
         transform="matrix(1,0,0,-1,36.85,347.94)"><tspan
           id="tspan208"
           y="0"
           x="0 8.8959999 13.344">0.5</tspan></text>
<text
         id="text214"
         style="font-variant:normal;font-weight:normal;font-size:16px;font-family:Helvetica;-inkscape-font-specification:Helvetica;writing-mode:lr-tb;fill:#000000;fill-opacity:1;fill-rule:nonzero;stroke:none"
         transform="matrix(1,0,0,-1,36.85,430.42)"><tspan
           id="tspan212"
           y="0"
           x="0 8.8959999 13.344">1.0</tspan></text>
</g><g
       id="g216" /><g
       id="g218" /><g
       id="g220"><path
         id="path222"
         style="fill:none;stroke:#000000;stroke-width:1.07000005;stroke-linecap:butt;stroke-linejoin:round;stroke-miterlimit:10;stroke-dasharray:none;stroke-opacity:1"
         d="m 61.49,106.24 h 2.98" /><path
         id="path224"
         style="fill:none;stroke:#000000;stroke-width:1.07000005;stroke-linecap:butt;stroke-linejoin:round;stroke-miterlimit:10;stroke-dasharray:none;stroke-opacity:1"
         d="m 61.49,188.72 h 2.98" /><path
         id="path226"
         style="fill:none;stroke:#000000;stroke-width:1.07000005;stroke-linecap:butt;stroke-linejoin:round;stroke-miterlimit:10;stroke-dasharray:none;stroke-opacity:1"
         d="m 61.49,271.2 h 2.98" /><path
         id="path228"
         style="fill:none;stroke:#000000;stroke-width:1.07000005;stroke-linecap:butt;stroke-linejoin:round;stroke-miterlimit:10;stroke-dasharray:none;stroke-opacity:1"
         d="m 61.49,353.68 h 2.98" /><path
         id="path230"
         style="fill:none;stroke:#000000;stroke-width:1.07000005;stroke-linecap:butt;stroke-linejoin:round;stroke-miterlimit:10;stroke-dasharray:none;stroke-opacity:1"
         d="m 61.49,436.16 h 2.98" /></g><g
       id="g232" /><g
       id="g234" /><g
       id="g236" /><g
       id="g238" /><g
       id="g240" /><g
       id="g242" /><g
       id="g244" /><g
       id="g246" /><g
       id="g248"><path
         id="path250"
         style="fill:none;stroke:#000000;stroke-width:1.07000005;stroke-linecap:butt;stroke-linejoin:round;stroke-miterlimit:10;stroke-dasharray:none;stroke-opacity:1"
         d="m 94.59,41.39 v 2.99" /><path
         id="path252"
         style="fill:none;stroke:#000000;stroke-width:1.07000005;stroke-linecap:butt;stroke-linejoin:round;stroke-miterlimit:10;stroke-dasharray:none;stroke-opacity:1"
         d="m 212.45,41.39 v 2.99" /><path
         id="path254"
         style="fill:none;stroke:#000000;stroke-width:1.07000005;stroke-linecap:butt;stroke-linejoin:round;stroke-miterlimit:10;stroke-dasharray:none;stroke-opacity:1"
         d="m 330.32,41.39 v 2.99" /><path
         id="path256"
         style="fill:none;stroke:#000000;stroke-width:1.07000005;stroke-linecap:butt;stroke-linejoin:round;stroke-miterlimit:10;stroke-dasharray:none;stroke-opacity:1"
         d="m 448.18,41.39 v 2.99" /><path
         id="path258"
         style="fill:none;stroke:#000000;stroke-width:1.07000005;stroke-linecap:butt;stroke-linejoin:round;stroke-miterlimit:10;stroke-dasharray:none;stroke-opacity:1"
         d="m 566.04,41.39 v 2.99" /><path
         id="path260"
         style="fill:none;stroke:#000000;stroke-width:1.07000005;stroke-linecap:butt;stroke-linejoin:round;stroke-miterlimit:10;stroke-dasharray:none;stroke-opacity:1"
         d="m 683.91,41.39 v 2.99" /></g><g
       id="g262" /><g
       id="g264"><text
         id="text268"
         style="font-variant:normal;font-weight:normal;font-size:16px;font-family:Helvetica;-inkscape-font-specification:Helvetica;writing-mode:lr-tb;fill:#000000;fill-opacity:1;fill-rule:nonzero;stroke:none"
         transform="matrix(1,0,0,-1,90.14,27.51)"><tspan
           id="tspan266"
           y="0"
           x="0">0</tspan></text>
<text
         id="text272"
         style="font-variant:normal;font-weight:normal;font-size:16px;font-family:Helvetica;-inkscape-font-specification:Helvetica;writing-mode:lr-tb;fill:#000000;fill-opacity:1;fill-rule:nonzero;stroke:none"
         transform="matrix(1,0,0,-1,194.66,27.51)"><tspan
           id="tspan270"
           y="0"
           x="0 8.8959999 17.792 26.688">1000</tspan></text>
<text
         id="text276"
         style="font-variant:normal;font-weight:normal;font-size:16px;font-family:Helvetica;-inkscape-font-specification:Helvetica;writing-mode:lr-tb;fill:#000000;fill-opacity:1;fill-rule:nonzero;stroke:none"
         transform="matrix(1,0,0,-1,312.52,27.51)"><tspan
           id="tspan274"
           y="0"
           x="0 8.8959999 17.792 26.688">2000</tspan></text>
<text
         id="text280"
         style="font-variant:normal;font-weight:normal;font-size:16px;font-family:Helvetica;-inkscape-font-specification:Helvetica;writing-mode:lr-tb;fill:#000000;fill-opacity:1;fill-rule:nonzero;stroke:none"
         transform="matrix(1,0,0,-1,430.39,27.51)"><tspan
           id="tspan278"
           y="0"
           x="0 8.8959999 17.792 26.688">3000</tspan></text>
<text
         id="text284"
         style="font-variant:normal;font-weight:normal;font-size:16px;font-family:Helvetica;-inkscape-font-specification:Helvetica;writing-mode:lr-tb;fill:#000000;fill-opacity:1;fill-rule:nonzero;stroke:none"
         transform="matrix(1,0,0,-1,548.25,27.51)"><tspan
           id="tspan282"
           y="0"
           x="0 8.8959999 17.792 26.688">4000</tspan></text>
<text
         id="text288"
         style="font-variant:normal;font-weight:normal;font-size:16px;font-family:Helvetica;-inkscape-font-specification:Helvetica;writing-mode:lr-tb;fill:#000000;fill-opacity:1;fill-rule:nonzero;stroke:none"
         transform="matrix(1,0,0,-1,666.12,27.51)"><tspan
           id="tspan286"
           y="0"
           x="0 8.8959999 17.792 26.688">5000</tspan></text>
</g><g
       id="g290" /><g
       id="g292" /><g
       id="g294" /><g
       id="g296" /><g
       id="g298" /><g
       id="g300"><text
         id="text304"
         style="font-variant:normal;font-weight:normal;font-size:20px;font-family:Helvetica;-inkscape-font-specification:Helvetica;writing-mode:lr-tb;fill:#000000;fill-opacity:1;fill-rule:nonzero;stroke:none"
         transform="matrix(1,0,0,-1,367.03,8.37)"><tspan
           id="tspan302"
           y="0"
           x="0 12.22 16.66 33.32">Time</tspan></text>
</g><g
       id="g306" /><g
       id="g308" /><g
       id="g310"><text
         id="text314"
         style="font-variant:normal;font-weight:normal;font-size:20px;font-family:Helvetica;-inkscape-font-specification:Helvetica;writing-mode:lr-tb;fill:#000000;fill-opacity:1;fill-rule:nonzero;stroke:none"
         transform="matrix(0,1,1,0,22.73,98.2)"><tspan
           id="tspan312"
           y="0"
           x="0 14.44 25.559999 36.68 47.799999 58.919998 75.580002 81.139999 91.139999 107.8 118.92 130.03999 135.60001 146.72 152.28 163 173 178.56 188.56 199.67999 210.8 221.92 231.52 242.64 249.3 254.86 261.51999 271.51999 282.64001 293.76001 299.32001 310.44 317.10001 328.22 339.34">Random smooth by speaker (centered)</tspan></text>
</g><g
       id="g316" /><g
       id="g318" /><g
       id="g320" /><g
       id="g322" /><g
       id="g324" /></g></svg>