<?xml version="1.0" encoding="UTF-8" standalone="no"?>
<svg
   xmlns:dc="http://purl.org/dc/elements/1.1/"
   xmlns:cc="http://creativecommons.org/ns#"
   xmlns:rdf="http://www.w3.org/1999/02/22-rdf-syntax-ns#"
   xmlns:svg="http://www.w3.org/2000/svg"
   xmlns="http://www.w3.org/2000/svg"
   viewBox="0 0 650.66669 528"
   height="528"
   width="650.66669"
   xml:space="preserve"
   id="svg2"
   version="1.1"><metadata
     id="metadata8"><rdf:RDF><cc:Work
         rdf:about=""><dc:format>image/svg+xml</dc:format><dc:type
           rdf:resource="http://purl.org/dc/dcmitype/StillImage" /></cc:Work></rdf:RDF></metadata><defs
     id="defs6"><clipPath
       id="clipPath38"
       clipPathUnits="userSpaceOnUse"><path
         id="path36"
         d="M 0,0 H 489 V 396 H 0 Z" /></clipPath><clipPath
       id="clipPath54"
       clipPathUnits="userSpaceOnUse"><path
         id="path52"
         d="M 62.48,42.83 H 483.52 V 390.52 H 62.48 Z" /></clipPath></defs><g
     transform="matrix(1.3333333,0,0,-1.3333333,0,528)"
     id="g10"><g
       id="g12" /><g
       id="g14" /><g
       id="g16" /><g
       id="g18" /><g
       id="g20" /><g
       id="g22" /><g
       id="g24" /><g
       id="g26" /><g
       id="g28" /><g
       id="g30" /><g
       id="g32"><g
         clip-path="url(#clipPath38)"
         id="g34"><path
           id="path40"
           style="fill:#ffffff;fill-opacity:1;fill-rule:nonzero;stroke:#ffffff;stroke-width:1.07000005;stroke-linecap:round;stroke-linejoin:round;stroke-miterlimit:10;stroke-dasharray:none;stroke-opacity:1"
           d="M 0,0 H 489 V 396 H 0 Z" /></g></g><g
       id="g42" /><g
       id="g44" /><g
       id="g46" /><g
       id="g48"><g
         clip-path="url(#clipPath54)"
         id="g50"><path
           id="path56"
           style="fill:#ebebeb;fill-opacity:1;fill-rule:nonzero;stroke:none"
           d="M 62.48,42.83 H 483.52 V 390.52 H 62.48 Z" /><path
           id="path58"
           style="fill:none;stroke:#ffffff;stroke-width:0.52999997;stroke-linecap:butt;stroke-linejoin:round;stroke-miterlimit:10;stroke-dasharray:none;stroke-opacity:1"
           d="M 62.48,98.15 H 483.52" /><path
           id="path60"
           style="fill:none;stroke:#ffffff;stroke-width:0.52999997;stroke-linecap:butt;stroke-linejoin:round;stroke-miterlimit:10;stroke-dasharray:none;stroke-opacity:1"
           d="M 62.48,177.17 H 483.52" /><path
           id="path62"
           style="fill:none;stroke:#ffffff;stroke-width:0.52999997;stroke-linecap:butt;stroke-linejoin:round;stroke-miterlimit:10;stroke-dasharray:none;stroke-opacity:1"
           d="M 62.48,256.19 H 483.52" /><path
           id="path64"
           style="fill:none;stroke:#ffffff;stroke-width:0.52999997;stroke-linecap:butt;stroke-linejoin:round;stroke-miterlimit:10;stroke-dasharray:none;stroke-opacity:1"
           d="M 62.48,335.21 H 483.52" /><path
           id="path66"
           style="fill:none;stroke:#ffffff;stroke-width:0.52999997;stroke-linecap:butt;stroke-linejoin:round;stroke-miterlimit:10;stroke-dasharray:none;stroke-opacity:1"
           d="M 133.72,42.83 V 390.52" /><path
           id="path68"
           style="fill:none;stroke:#ffffff;stroke-width:0.52999997;stroke-linecap:butt;stroke-linejoin:round;stroke-miterlimit:10;stroke-dasharray:none;stroke-opacity:1"
           d="M 213.81,42.83 V 390.52" /><path
           id="path70"
           style="fill:none;stroke:#ffffff;stroke-width:0.52999997;stroke-linecap:butt;stroke-linejoin:round;stroke-miterlimit:10;stroke-dasharray:none;stroke-opacity:1"
           d="M 293.91,42.83 V 390.52" /><path
           id="path72"
           style="fill:none;stroke:#ffffff;stroke-width:0.52999997;stroke-linecap:butt;stroke-linejoin:round;stroke-miterlimit:10;stroke-dasharray:none;stroke-opacity:1"
           d="M 374,42.83 V 390.52" /><path
           id="path74"
           style="fill:none;stroke:#ffffff;stroke-width:0.52999997;stroke-linecap:butt;stroke-linejoin:round;stroke-miterlimit:10;stroke-dasharray:none;stroke-opacity:1"
           d="M 454.1,42.83 V 390.52" /><path
           id="path76"
           style="fill:none;stroke:#ffffff;stroke-width:1.07000005;stroke-linecap:butt;stroke-linejoin:round;stroke-miterlimit:10;stroke-dasharray:none;stroke-opacity:1"
           d="M 62.48,58.64 H 483.52" /><path
           id="path78"
           style="fill:none;stroke:#ffffff;stroke-width:1.07000005;stroke-linecap:butt;stroke-linejoin:round;stroke-miterlimit:10;stroke-dasharray:none;stroke-opacity:1"
           d="M 62.48,137.66 H 483.52" /><path
           id="path80"
           style="fill:none;stroke:#ffffff;stroke-width:1.07000005;stroke-linecap:butt;stroke-linejoin:round;stroke-miterlimit:10;stroke-dasharray:none;stroke-opacity:1"
           d="M 62.48,216.68 H 483.52" /><path
           id="path82"
           style="fill:none;stroke:#ffffff;stroke-width:1.07000005;stroke-linecap:butt;stroke-linejoin:round;stroke-miterlimit:10;stroke-dasharray:none;stroke-opacity:1"
           d="M 62.48,295.7 H 483.52" /><path
           id="path84"
           style="fill:none;stroke:#ffffff;stroke-width:1.07000005;stroke-linecap:butt;stroke-linejoin:round;stroke-miterlimit:10;stroke-dasharray:none;stroke-opacity:1"
           d="M 62.48,374.72 H 483.52" /><path
           id="path86"
           style="fill:none;stroke:#ffffff;stroke-width:1.07000005;stroke-linecap:butt;stroke-linejoin:round;stroke-miterlimit:10;stroke-dasharray:none;stroke-opacity:1"
           d="M 93.67,42.83 V 390.52" /><path
           id="path88"
           style="fill:none;stroke:#ffffff;stroke-width:1.07000005;stroke-linecap:butt;stroke-linejoin:round;stroke-miterlimit:10;stroke-dasharray:none;stroke-opacity:1"
           d="M 173.77,42.83 V 390.52" /><path
           id="path90"
           style="fill:none;stroke:#ffffff;stroke-width:1.07000005;stroke-linecap:butt;stroke-linejoin:round;stroke-miterlimit:10;stroke-dasharray:none;stroke-opacity:1"
           d="M 253.86,42.83 V 390.52" /><path
           id="path92"
           style="fill:none;stroke:#ffffff;stroke-width:1.07000005;stroke-linecap:butt;stroke-linejoin:round;stroke-miterlimit:10;stroke-dasharray:none;stroke-opacity:1"
           d="M 333.96,42.83 V 390.52" /><path
           id="path94"
           style="fill:none;stroke:#ffffff;stroke-width:1.07000005;stroke-linecap:butt;stroke-linejoin:round;stroke-miterlimit:10;stroke-dasharray:none;stroke-opacity:1"
           d="M 414.05,42.83 V 390.52" /><path
           id="path96"
           style="fill:none;stroke:#000000;stroke-width:1.07000005;stroke-linecap:round;stroke-linejoin:round;stroke-miterlimit:10;stroke-dasharray:none;stroke-opacity:1"
           d="m 86.74,96.45 0.73,0.28 0.72,0.27 0.72,0.27 0.73,0.26 0.72,0.25 0.72,0.24 0.73,0.23 0.72,0.23 0.72,0.22 0.73,0.21 0.72,0.21 0.72,0.2 0.73,0.2 0.72,0.2 0.72,0.19 0.73,0.2 0.72,0.19 0.72,0.19 0.73,0.19 0.72,0.19 0.72,0.19 0.73,0.19 0.72,0.2 0.72,0.21 0.73,0.2 0.72,0.22 0.72,0.22 0.73,0.23 0.72,0.24 0.72,0.25 0.73,0.25 0.72,0.28 0.72,0.28 0.73,0.3 0.72,0.31 0.72,0.32 0.73,0.35 0.72,0.35 0.72,0.38 0.73,0.4 0.72,0.41 0.72,0.44 0.73,0.45 0.72,0.48 0.72,0.5 0.73,0.52 0.72,0.55 0.72,0.57 0.73,0.6 0.72,0.62 0.72,0.64 0.73,0.68 0.72,0.69 0.72,0.73 0.73,0.75 0.72,0.77 0.72,0.81 0.73,0.83 0.72,0.86 0.72,0.89 0.73,0.91 0.72,0.95 0.72,0.97 0.73,0.99 0.72,1.03 0.72,1.04 0.73,1.09 0.72,1.1 0.72,1.13 0.73,1.16 0.72,1.17 0.72,1.21 0.73,1.23 0.72,1.25 0.72,1.28 0.73,1.29 0.72,1.32 0.72,1.34 0.73,1.36 0.72,1.38 0.72,1.39 0.73,1.42 0.72,1.43 0.72,1.45 0.73,1.46 0.72,1.47 0.72,1.5 0.73,1.5 0.72,1.51 0.72,1.52 0.73,1.53 0.72,1.55 0.72,1.55 0.73,1.55 0.72,1.56 0.72,1.57 0.73,1.57 0.72,1.57 0.72,1.58 0.73,1.57 0.72,1.58 0.72,1.58 0.73,1.57 0.72,1.58 0.72,1.57 0.73,1.57 0.72,1.56 0.72,1.56 0.73,1.55 0.72,1.55 0.72,1.54 0.73,1.53 0.72,1.53 0.72,1.52 0.73,1.5 0.72,1.5 0.72,1.49 0.73,1.48 0.72,1.48 0.72,1.46 0.73,1.45 0.72,1.44 0.72,1.43 0.73,1.42 0.72,1.41 0.72,1.4 0.73,1.39 0.72,1.38 0.72,1.37 0.73,1.35 0.72,1.35 0.72,1.34 0.73,1.32 0.72,1.32 0.73,1.31 0.72,1.3 0.72,1.29 0.73,1.28 0.72,1.27 0.72,1.27 0.73,1.26 0.72,1.25 0.72,1.24 0.73,1.24 0.72,1.23 0.72,1.22 0.73,1.22 0.72,1.21 0.72,1.21 0.73,1.2 0.72,1.2 0.72,1.2 0.73,1.18 0.72,1.19 0.72,1.18 0.73,1.18 0.72,1.18 0.72,1.17 0.73,1.17 0.72,1.16 0.72,1.17 0.73,1.16 0.72,1.15 0.72,1.15 0.73,1.16 0.72,1.14 0.72,1.15 0.73,1.13 0.72,1.14 0.72,1.13 0.73,1.13 0.72,1.12 0.72,1.12 0.73,1.11 0.72,1.11 0.72,1.1 0.73,1.1 0.72,1.08 0.72,1.08 0.73,1.08 0.72,1.06 0.72,1.06 0.73,1.04 0.72,1.04 0.72,1.03 0.73,1.02 0.72,1 0.72,1 0.73,0.98 0.72,0.97 0.72,0.95 0.73,0.94 0.72,0.93 0.72,0.91 0.73,0.9 0.72,0.88 0.72,0.87 0.73,0.85 0.72,0.83 0.72,0.82 0.73,0.79 0.72,0.78 0.72,0.77 0.73,0.74 0.72,0.73 0.72,0.7 0.73,0.69 0.72,0.66 0.72,0.65 0.73,0.63 0.72,0.61 0.72,0.59 0.73,0.57 0.72,0.55 0.72,0.53 0.73,0.51 0.72,0.49 0.72,0.47 0.73,0.46 0.72,0.44 0.72,0.41 0.73,0.4 0.72,0.38 0.72,0.35 0.73,0.35 0.72,0.32 0.72,0.31 0.73,0.3 0.72,0.27 0.72,0.26 0.73,0.24 0.72,0.23 0.72,0.21 0.73,0.19 0.72,0.19 0.72,0.16 0.73,0.15 0.72,0.14 0.72,0.12 0.73,0.11 0.72,0.1 0.72,0.08 0.73,0.07 0.72,0.06 0.72,0.04 0.73,0.03 0.72,0.02 0.72,0.01 0.73,-0.02 0.72,-0.01 0.72,-0.04 0.73,-0.05 0.72,-0.05 0.72,-0.08 0.73,-0.08 0.72,-0.1 0.72,-0.12 0.73,-0.12 0.72,-0.14 0.72,-0.16 0.73,-0.17 0.72,-0.18 0.72,-0.2 0.73,-0.22 0.72,-0.23 0.72,-0.25 0.73,-0.27 0.72,-0.28 0.72,-0.31 0.73,-0.32 0.72,-0.34 0.72,-0.36 0.73,-0.38 0.72,-0.4 0.72,-0.42 0.73,-0.44 0.72,-0.47 0.72,-0.48 0.73,-0.52 0.72,-0.53 0.72,-0.55 0.73,-0.59 0.72,-0.6 0.72,-0.64 0.73,-0.66 0.72,-0.68 0.72,-0.71 0.73,-0.74 0.72,-0.76 0.72,-0.8 0.73,-0.81 0.72,-0.86 0.72,-0.87 0.73,-0.9 0.72,-0.94 0.72,-0.96 0.73,-1 0.72,-1.01 0.72,-1.05 0.73,-1.09 0.72,-1.09 0.72,-1.15 0.73,-1.17 0.72,-1.19 0.72,-1.23 0.73,-1.25 0.72,-1.29 0.72,-1.31 0.73,-1.34 0.72,-1.37 0.72,-1.39 0.73,-1.43 0.72,-1.45 0.72,-1.48 0.73,-1.51 0.72,-1.52 0.72,-1.57 0.73,-1.58 0.72,-1.6 0.72,-1.64 0.73,-1.65 0.72,-1.69 0.72,-1.7 0.73,-1.72 0.72,-1.76 0.72,-1.76 0.73,-1.79 0.72,-1.82 0.72,-1.82 0.73,-1.86 0.72,-1.86 0.72,-1.89 0.73,-1.9 0.72,-1.92 0.72,-1.94 0.73,-1.95 0.72,-1.96 0.72,-1.98 0.73,-1.99 0.72,-2.01 0.72,-2.01 0.73,-2.03 0.72,-2.04 0.72,-2.04 0.73,-2.06 0.72,-2.06 0.72,-2.07 0.73,-2.07 0.72,-2.08 0.72,-2.09 0.73,-2.09 0.72,-2.09 0.72,-2.1 0.73,-2.1 0.72,-2.09 0.72,-2.1 0.73,-2.1 0.72,-2.09 0.72,-2.09 0.73,-2.09 0.72,-2.09 0.72,-2.07 0.73,-2.08 0.72,-2.06 0.72,-2.06 0.73,-2.05 0.72,-2.04 0.72,-2.03 0.73,-2.02 0.72,-2 0.72,-1.99 0.73,-1.98 0.72,-1.96 0.72,-1.96 0.73,-1.93 0.72,-1.91 0.72,-1.9 0.73,-1.88 0.72,-1.86 0.72,-1.83 0.73,-1.82 0.72,-1.8 0.72,-1.77 0.73,-1.75 0.72,-1.72 0.72,-1.7 0.73,-1.68 0.72,-1.64 0.72,-1.63 0.73,-1.59 0.72,-1.57 0.72,-1.54 0.73,-1.5 0.72,-1.48 0.72,-1.45 0.73,-1.42 0.72,-1.4 0.72,-1.34 0.73,-1.33 0.72,-1.29 0.72,-1.26 0.73,-1.24 0.72,-1.19 0.73,-1.16 0.72,-1.13 0.72,-1.09 0.73,-1.07 0.72,-1.03 0.72,-0.99 0.73,-0.97 0.72,-0.92 0.72,-0.91 0.73,-0.85 0.72,-0.83 0.72,-0.8 0.73,-0.76 0.72,-0.74 0.72,-0.7 0.73,-0.67 0.72,-0.64 0.72,-0.6 0.73,-0.58 0.72,-0.54 0.72,-0.52 0.73,-0.49 0.72,-0.45 0.72,-0.43 0.73,-0.4 0.72,-0.38 0.72,-0.35 0.73,-0.32 0.72,-0.3 0.72,-0.27 0.73,-0.25 0.72,-0.23 0.72,-0.2 0.73,-0.19 0.72,-0.16 0.72,-0.14 0.73,-0.13 0.72,-0.1 0.72,-0.09 0.73,-0.07 0.72,-0.05 0.72,-0.05 0.73,-0.02 0.72,-0.01 h 0.72 l 0.73,0.01 0.72,0.03 0.72,0.03 0.73,0.05 0.72,0.05 0.72,0.06 0.73,0.07 0.72,0.08 0.72,0.08 0.73,0.09 0.72,0.09 0.72,0.09 0.73,0.1 0.72,0.1 0.72,0.1 0.73,0.1 0.72,0.11 0.72,0.1 0.73,0.1 0.72,0.1 0.72,0.09 0.73,0.1 0.72,0.09 0.72,0.09 0.73,0.08 0.72,0.08 0.72,0.07 0.73,0.07 0.72,0.06 0.72,0.06 0.73,0.04 0.72,0.05 0.72,0.03 0.73,0.02 0.72,0.02 0.72,0.01 h 0.73 l 0.72,-0.01 0.72,-0.01 0.73,-0.03 0.72,-0.04 0.72,-0.04 0.73,-0.06 0.72,-0.07 0.72,-0.07 0.73,-0.09 0.72,-0.09 0.72,-0.11 0.73,-0.12 0.72,-0.12 0.72,-0.14 0.73,-0.14 0.72,-0.16 0.72,-0.17 0.73,-0.17 0.72,-0.19 0.72,-0.19 0.73,-0.21 0.72,-0.21 0.72,-0.23 0.73,-0.23 0.72,-0.24 0.72,-0.25 V 58.64 h -0.72 -0.72 -0.73 -0.72 -0.72 -0.73 -0.72 -0.72 -0.73 -0.72 -0.72 -0.73 -0.72 -0.72 -0.73 -0.72 -0.72 -0.73 -0.72 -0.72 -0.73 -0.72 -0.72 -0.73 -0.72 -0.72 -0.73 -0.72 -0.72 -0.73 -0.72 -0.72 -0.73 -0.72 -0.72 -0.73 -0.72 -0.72 -0.73 -0.72 -0.72 -0.73 -0.72 -0.72 -0.73 -0.72 -0.72 -0.73 -0.72 -0.72 -0.73 -0.72 -0.72 -0.73 -0.72 -0.72 -0.73 -0.72 -0.72 -0.73 -0.72 -0.72 -0.73 -0.72 -0.72 -0.73 -0.72 -0.72 -0.73 -0.72 -0.72 -0.73 -0.72 -0.72 -0.73 -0.72 -0.72 -0.73 -0.72 -0.72 -0.73 -0.72 -0.72 -0.73 -0.72 -0.72 -0.73 -0.72 -0.72 -0.73 -0.72 -0.72 -0.73 -0.72 -0.72 -0.73 -0.72 -0.72 -0.73 -0.72 -0.72 -0.73 -0.72 -0.72 -0.73 -0.72 -0.72 -0.73 -0.72 -0.73 -0.72 -0.72 -0.73 -0.72 -0.72 -0.73 -0.72 -0.72 -0.73 -0.72 -0.72 -0.73 -0.72 -0.72 -0.73 -0.72 -0.72 -0.73 -0.72 -0.72 -0.73 -0.72 -0.72 -0.73 -0.72 -0.72 -0.73 -0.72 -0.72 -0.73 -0.72 -0.72 -0.73 -0.72 -0.72 -0.73 -0.72 -0.72 -0.73 -0.72 -0.72 -0.73 -0.72 -0.72 -0.73 -0.72 -0.72 -0.73 -0.72 -0.72 -0.73 -0.72 -0.72 -0.73 -0.72 -0.72 -0.73 -0.72 -0.72 -0.73 -0.72 -0.72 -0.73 -0.72 -0.72 -0.73 -0.72 -0.72 -0.73 -0.72 -0.72 -0.73 -0.72 -0.72 -0.73 -0.72 -0.72 -0.73 -0.72 -0.72 -0.73 -0.72 -0.72 -0.73 -0.72 -0.72 -0.73 -0.72 -0.72 -0.73 -0.72 -0.72 -0.73 -0.72 -0.72 -0.73 -0.72 -0.72 -0.73 -0.72 -0.72 -0.73 -0.72 -0.72 -0.73 -0.72 -0.72 -0.73 -0.72 -0.72 -0.73 -0.72 -0.72 -0.73 -0.72 -0.72 -0.73 -0.72 -0.72 -0.73 -0.72 -0.72 -0.73 -0.72 -0.72 -0.73 -0.72 -0.72 -0.73 -0.72 -0.72 -0.73 -0.72 -0.72 -0.73 -0.72 -0.72 -0.73 -0.72 -0.72 -0.73 -0.72 -0.72 -0.73 -0.72 -0.72 -0.73 -0.72 -0.72 -0.73 -0.72 -0.72 -0.73 -0.72 -0.72 -0.73 -0.72 -0.72 -0.73 -0.72 -0.72 -0.73 -0.72 -0.72 -0.73 -0.72 -0.72 -0.73 -0.72 -0.72 -0.73 -0.72 -0.72 -0.73 -0.72 -0.72 -0.73 -0.72 -0.72 -0.73 -0.72 -0.72 -0.73 -0.72 -0.72 -0.73 -0.72 -0.72 -0.73 -0.72 -0.72 -0.73 -0.72 -0.72 -0.73 -0.72 -0.72 -0.73 -0.72 -0.72 -0.73 -0.72 -0.72 -0.73 -0.72 -0.72 -0.73 -0.72 -0.72 -0.73 -0.72 -0.72 -0.73 -0.72 -0.72 -0.73 -0.72 -0.72 -0.73 -0.72 -0.72 -0.73 -0.72 -0.72 -0.73 -0.72 -0.72 -0.73 -0.72 -0.72 -0.73 -0.72 -0.72 -0.73 -0.72 -0.72 -0.73 -0.72 -0.72 -0.73 -0.72 -0.72 -0.73 -0.72 -0.72 -0.73 -0.72 -0.72 -0.73 -0.72 -0.72 -0.73 -0.72 -0.72 -0.73 -0.72 -0.72 -0.73 -0.72 -0.72 -0.73 -0.72 -0.72 -0.73 -0.72 -0.72 -0.73 -0.72 -0.73 -0.72 -0.72 -0.73 -0.72 -0.72 -0.73 -0.72 -0.72 -0.73 -0.72 -0.72 -0.73 -0.72 -0.72 -0.73 -0.72 -0.72 -0.73 -0.72 -0.72 -0.73 -0.72 -0.72 -0.73 -0.72 -0.72 -0.73 -0.72 -0.72 -0.73 -0.72 -0.72 -0.73 -0.72 -0.72 -0.73 -0.72 -0.72 -0.73 -0.72 -0.72 -0.73 -0.72 -0.72 -0.73 -0.72 -0.72 -0.73 -0.72 -0.72 -0.73 -0.72 -0.72 -0.73 -0.72 -0.72 -0.73 -0.72 -0.72 -0.73 -0.72 -0.72 -0.73 -0.72 -0.72 -0.73 -0.72 -0.72 -0.73 -0.72 -0.72 -0.73 -0.72 -0.72 -0.73 -0.72 -0.72 -0.73 -0.72 -0.72 -0.73 -0.72 -0.72 -0.73 -0.72 -0.72 -0.73 -0.72 -0.72 -0.73 -0.72 -0.72 -0.73 -0.72 -0.72 -0.73 -0.72 -0.72 -0.73 -0.72 -0.72 -0.73 -0.72 -0.72 -0.73 -0.72 -0.72 -0.73 -0.72 -0.72 -0.73 -0.72 -0.72 -0.73 -0.72 -0.72 -0.73 -0.72 -0.72 -0.73 -0.72 -0.72 -0.73 -0.72 -0.72 -0.73 -0.72 -0.72 -0.73 -0.72 -0.72 -0.73 v 37.81" /><text
           id="text100"
           style="font-variant:normal;font-weight:normal;font-size:22.19000053px;font-family:ZapfDingbats;-inkscape-font-specification:ZapfDingbats;writing-mode:lr-tb;fill:#000000;fill-opacity:1;fill-rule:nonzero;stroke:#000000;stroke-width:0.75;stroke-linecap:round;stroke-linejoin:round;stroke-miterlimit:10;stroke-dasharray:none;stroke-opacity:1"
           transform="matrix(1,0,0,-1,80.84,58.95)"><tspan
             id="tspan98"
             y="0"
             x="0">●</tspan></text>
<text
           id="text104"
           style="font-variant:normal;font-weight:normal;font-size:22.19000053px;font-family:ZapfDingbats;-inkscape-font-specification:ZapfDingbats;writing-mode:lr-tb;fill:#000000;fill-opacity:1;fill-rule:nonzero;stroke:#000000;stroke-width:0.75;stroke-linecap:round;stroke-linejoin:round;stroke-miterlimit:10;stroke-dasharray:none;stroke-opacity:1"
           transform="matrix(1,0,0,-1,80.84,74.97)"><tspan
             id="tspan102"
             y="0"
             x="0">●</tspan></text>
<text
           id="text108"
           style="font-variant:normal;font-weight:normal;font-size:22.19000053px;font-family:ZapfDingbats;-inkscape-font-specification:ZapfDingbats;writing-mode:lr-tb;fill:#000000;fill-opacity:1;fill-rule:nonzero;stroke:#000000;stroke-width:0.75;stroke-linecap:round;stroke-linejoin:round;stroke-miterlimit:10;stroke-dasharray:none;stroke-opacity:1"
           transform="matrix(1,0,0,-1,137.4,58.95)"><tspan
             id="tspan106"
             y="0"
             x="0">●</tspan></text>
<text
           id="text112"
           style="font-variant:normal;font-weight:normal;font-size:22.19000053px;font-family:ZapfDingbats;-inkscape-font-specification:ZapfDingbats;writing-mode:lr-tb;fill:#000000;fill-opacity:1;fill-rule:nonzero;stroke:#000000;stroke-width:0.75;stroke-linecap:round;stroke-linejoin:round;stroke-miterlimit:10;stroke-dasharray:none;stroke-opacity:1"
           transform="matrix(1,0,0,-1,162.49,58.95)"><tspan
             id="tspan110"
             y="0"
             x="0">●</tspan></text>
<text
           id="text116"
           style="font-variant:normal;font-weight:normal;font-size:22.19000053px;font-family:ZapfDingbats;-inkscape-font-specification:ZapfDingbats;writing-mode:lr-tb;fill:#000000;fill-opacity:1;fill-rule:nonzero;stroke:#000000;stroke-width:0.75;stroke-linecap:round;stroke-linejoin:round;stroke-miterlimit:10;stroke-dasharray:none;stroke-opacity:1"
           transform="matrix(1,0,0,-1,162.49,74.97)"><tspan
             id="tspan114"
             y="0"
             x="0">●</tspan></text>
<text
           id="text120"
           style="font-variant:normal;font-weight:normal;font-size:22.19000053px;font-family:ZapfDingbats;-inkscape-font-specification:ZapfDingbats;writing-mode:lr-tb;fill:#000000;fill-opacity:1;fill-rule:nonzero;stroke:#000000;stroke-width:0.75;stroke-linecap:round;stroke-linejoin:round;stroke-miterlimit:10;stroke-dasharray:none;stroke-opacity:1"
           transform="matrix(1,0,0,-1,162.49,90.99)"><tspan
             id="tspan118"
             y="0"
             x="0">●</tspan></text>
<text
           id="text124"
           style="font-variant:normal;font-weight:normal;font-size:22.19000053px;font-family:ZapfDingbats;-inkscape-font-specification:ZapfDingbats;writing-mode:lr-tb;fill:#000000;fill-opacity:1;fill-rule:nonzero;stroke:#000000;stroke-width:0.75;stroke-linecap:round;stroke-linejoin:round;stroke-miterlimit:10;stroke-dasharray:none;stroke-opacity:1"
           transform="matrix(1,0,0,-1,179.33,58.95)"><tspan
             id="tspan122"
             y="0"
             x="0">●</tspan></text>
<text
           id="text128"
           style="font-variant:normal;font-weight:normal;font-size:22.19000053px;font-family:ZapfDingbats;-inkscape-font-specification:ZapfDingbats;writing-mode:lr-tb;fill:#000000;fill-opacity:1;fill-rule:nonzero;stroke:#000000;stroke-width:0.75;stroke-linecap:round;stroke-linejoin:round;stroke-miterlimit:10;stroke-dasharray:none;stroke-opacity:1"
           transform="matrix(1,0,0,-1,179.33,74.97)"><tspan
             id="tspan126"
             y="0"
             x="0">●</tspan></text>
<text
           id="text132"
           style="font-variant:normal;font-weight:normal;font-size:22.19000053px;font-family:ZapfDingbats;-inkscape-font-specification:ZapfDingbats;writing-mode:lr-tb;fill:#000000;fill-opacity:1;fill-rule:nonzero;stroke:#000000;stroke-width:0.75;stroke-linecap:round;stroke-linejoin:round;stroke-miterlimit:10;stroke-dasharray:none;stroke-opacity:1"
           transform="matrix(1,0,0,-1,179.33,90.99)"><tspan
             id="tspan130"
             y="0"
             x="0">●</tspan></text>
<text
           id="text136"
           style="font-variant:normal;font-weight:normal;font-size:22.19000053px;font-family:ZapfDingbats;-inkscape-font-specification:ZapfDingbats;writing-mode:lr-tb;fill:#000000;fill-opacity:1;fill-rule:nonzero;stroke:#000000;stroke-width:0.75;stroke-linecap:round;stroke-linejoin:round;stroke-miterlimit:10;stroke-dasharray:none;stroke-opacity:1"
           transform="matrix(1,0,0,-1,203,58.95)"><tspan
             id="tspan134"
             y="0"
             x="0">●</tspan></text>
<text
           id="text140"
           style="font-variant:normal;font-weight:normal;font-size:22.19000053px;font-family:ZapfDingbats;-inkscape-font-specification:ZapfDingbats;writing-mode:lr-tb;fill:#000000;fill-opacity:1;fill-rule:nonzero;stroke:#000000;stroke-width:0.75;stroke-linecap:round;stroke-linejoin:round;stroke-miterlimit:10;stroke-dasharray:none;stroke-opacity:1"
           transform="matrix(1,0,0,-1,203,74.97)"><tspan
             id="tspan138"
             y="0"
             x="0">●</tspan></text>
<text
           id="text144"
           style="font-variant:normal;font-weight:normal;font-size:22.19000053px;font-family:ZapfDingbats;-inkscape-font-specification:ZapfDingbats;writing-mode:lr-tb;fill:#000000;fill-opacity:1;fill-rule:nonzero;stroke:#000000;stroke-width:0.75;stroke-linecap:round;stroke-linejoin:round;stroke-miterlimit:10;stroke-dasharray:none;stroke-opacity:1"
           transform="matrix(1,0,0,-1,203,90.99)"><tspan
             id="tspan142"
             y="0"
             x="0">●</tspan></text>
<text
           id="text148"
           style="font-variant:normal;font-weight:normal;font-size:22.19000053px;font-family:ZapfDingbats;-inkscape-font-specification:ZapfDingbats;writing-mode:lr-tb;fill:#000000;fill-opacity:1;fill-rule:nonzero;stroke:#000000;stroke-width:0.75;stroke-linecap:round;stroke-linejoin:round;stroke-miterlimit:10;stroke-dasharray:none;stroke-opacity:1"
           transform="matrix(1,0,0,-1,225.1,58.95)"><tspan
             id="tspan146"
             y="0"
             x="0">●</tspan></text>
<text
           id="text152"
           style="font-variant:normal;font-weight:normal;font-size:22.19000053px;font-family:ZapfDingbats;-inkscape-font-specification:ZapfDingbats;writing-mode:lr-tb;fill:#000000;fill-opacity:1;fill-rule:nonzero;stroke:#000000;stroke-width:0.75;stroke-linecap:round;stroke-linejoin:round;stroke-miterlimit:10;stroke-dasharray:none;stroke-opacity:1"
           transform="matrix(1,0,0,-1,225.1,74.97)"><tspan
             id="tspan150"
             y="0"
             x="0">●</tspan></text>
<text
           id="text156"
           style="font-variant:normal;font-weight:normal;font-size:22.19000053px;font-family:ZapfDingbats;-inkscape-font-specification:ZapfDingbats;writing-mode:lr-tb;fill:#000000;fill-opacity:1;fill-rule:nonzero;stroke:#000000;stroke-width:0.75;stroke-linecap:round;stroke-linejoin:round;stroke-miterlimit:10;stroke-dasharray:none;stroke-opacity:1"
           transform="matrix(1,0,0,-1,225.1,90.99)"><tspan
             id="tspan154"
             y="0"
             x="0">●</tspan></text>
<text
           id="text160"
           style="font-variant:normal;font-weight:normal;font-size:22.19000053px;font-family:ZapfDingbats;-inkscape-font-specification:ZapfDingbats;writing-mode:lr-tb;fill:#000000;fill-opacity:1;fill-rule:nonzero;stroke:#000000;stroke-width:0.75;stroke-linecap:round;stroke-linejoin:round;stroke-miterlimit:10;stroke-dasharray:none;stroke-opacity:1"
           transform="matrix(1,0,0,-1,225.1,107.01)"><tspan
             id="tspan158"
             y="0"
             x="0">●</tspan></text>
<text
           id="text164"
           style="font-variant:normal;font-weight:normal;font-size:22.19000053px;font-family:ZapfDingbats;-inkscape-font-specification:ZapfDingbats;writing-mode:lr-tb;fill:#000000;fill-opacity:1;fill-rule:nonzero;stroke:#000000;stroke-width:0.75;stroke-linecap:round;stroke-linejoin:round;stroke-miterlimit:10;stroke-dasharray:none;stroke-opacity:1"
           transform="matrix(1,0,0,-1,225.1,123.02)"><tspan
             id="tspan162"
             y="0"
             x="0">●</tspan></text>
<text
           id="text168"
           style="font-variant:normal;font-weight:normal;font-size:22.19000053px;font-family:ZapfDingbats;-inkscape-font-specification:ZapfDingbats;writing-mode:lr-tb;fill:#000000;fill-opacity:1;fill-rule:nonzero;stroke:#000000;stroke-width:0.75;stroke-linecap:round;stroke-linejoin:round;stroke-miterlimit:10;stroke-dasharray:none;stroke-opacity:1"
           transform="matrix(1,0,0,-1,245.84,58.95)"><tspan
             id="tspan166"
             y="0"
             x="0">●</tspan></text>
<text
           id="text172"
           style="font-variant:normal;font-weight:normal;font-size:22.19000053px;font-family:ZapfDingbats;-inkscape-font-specification:ZapfDingbats;writing-mode:lr-tb;fill:#000000;fill-opacity:1;fill-rule:nonzero;stroke:#000000;stroke-width:0.75;stroke-linecap:round;stroke-linejoin:round;stroke-miterlimit:10;stroke-dasharray:none;stroke-opacity:1"
           transform="matrix(1,0,0,-1,245.84,74.97)"><tspan
             id="tspan170"
             y="0"
             x="0">●</tspan></text>
<text
           id="text176"
           style="font-variant:normal;font-weight:normal;font-size:22.19000053px;font-family:ZapfDingbats;-inkscape-font-specification:ZapfDingbats;writing-mode:lr-tb;fill:#000000;fill-opacity:1;fill-rule:nonzero;stroke:#000000;stroke-width:0.75;stroke-linecap:round;stroke-linejoin:round;stroke-miterlimit:10;stroke-dasharray:none;stroke-opacity:1"
           transform="matrix(1,0,0,-1,245.84,90.99)"><tspan
             id="tspan174"
             y="0"
             x="0">●</tspan></text>
<text
           id="text180"
           style="font-variant:normal;font-weight:normal;font-size:22.19000053px;font-family:ZapfDingbats;-inkscape-font-specification:ZapfDingbats;writing-mode:lr-tb;fill:#000000;fill-opacity:1;fill-rule:nonzero;stroke:#000000;stroke-width:0.75;stroke-linecap:round;stroke-linejoin:round;stroke-miterlimit:10;stroke-dasharray:none;stroke-opacity:1"
           transform="matrix(1,0,0,-1,245.84,107.01)"><tspan
             id="tspan178"
             y="0"
             x="0">●</tspan></text>
<text
           id="text184"
           style="font-variant:normal;font-weight:normal;font-size:22.19000053px;font-family:ZapfDingbats;-inkscape-font-specification:ZapfDingbats;writing-mode:lr-tb;fill:#000000;fill-opacity:1;fill-rule:nonzero;stroke:#000000;stroke-width:0.75;stroke-linecap:round;stroke-linejoin:round;stroke-miterlimit:10;stroke-dasharray:none;stroke-opacity:1"
           transform="matrix(1,0,0,-1,263.03,58.95)"><tspan
             id="tspan182"
             y="0"
             x="0">●</tspan></text>
<text
           id="text188"
           style="font-variant:normal;font-weight:normal;font-size:22.19000053px;font-family:ZapfDingbats;-inkscape-font-specification:ZapfDingbats;writing-mode:lr-tb;fill:#000000;fill-opacity:1;fill-rule:nonzero;stroke:#000000;stroke-width:0.75;stroke-linecap:round;stroke-linejoin:round;stroke-miterlimit:10;stroke-dasharray:none;stroke-opacity:1"
           transform="matrix(1,0,0,-1,263.03,74.97)"><tspan
             id="tspan186"
             y="0"
             x="0">●</tspan></text>
<text
           id="text192"
           style="font-variant:normal;font-weight:normal;font-size:22.19000053px;font-family:ZapfDingbats;-inkscape-font-specification:ZapfDingbats;writing-mode:lr-tb;fill:#000000;fill-opacity:1;fill-rule:nonzero;stroke:#000000;stroke-width:0.75;stroke-linecap:round;stroke-linejoin:round;stroke-miterlimit:10;stroke-dasharray:none;stroke-opacity:1"
           transform="matrix(1,0,0,-1,280.74,58.95)"><tspan
             id="tspan190"
             y="0"
             x="0">●</tspan></text>
<text
           id="text196"
           style="font-variant:normal;font-weight:normal;font-size:22.19000053px;font-family:ZapfDingbats;-inkscape-font-specification:ZapfDingbats;writing-mode:lr-tb;fill:#000000;fill-opacity:1;fill-rule:nonzero;stroke:#000000;stroke-width:0.75;stroke-linecap:round;stroke-linejoin:round;stroke-miterlimit:10;stroke-dasharray:none;stroke-opacity:1"
           transform="matrix(1,0,0,-1,280.74,74.97)"><tspan
             id="tspan194"
             y="0"
             x="0">●</tspan></text>
<text
           id="text200"
           style="font-variant:normal;font-weight:normal;font-size:22.19000053px;font-family:ZapfDingbats;-inkscape-font-specification:ZapfDingbats;writing-mode:lr-tb;fill:#000000;fill-opacity:1;fill-rule:nonzero;stroke:#000000;stroke-width:0.75;stroke-linecap:round;stroke-linejoin:round;stroke-miterlimit:10;stroke-dasharray:none;stroke-opacity:1"
           transform="matrix(1,0,0,-1,280.74,90.99)"><tspan
             id="tspan198"
             y="0"
             x="0">●</tspan></text>
<text
           id="text204"
           style="font-variant:normal;font-weight:normal;font-size:22.19000053px;font-family:ZapfDingbats;-inkscape-font-specification:ZapfDingbats;writing-mode:lr-tb;fill:#000000;fill-opacity:1;fill-rule:nonzero;stroke:#000000;stroke-width:0.75;stroke-linecap:round;stroke-linejoin:round;stroke-miterlimit:10;stroke-dasharray:none;stroke-opacity:1"
           transform="matrix(1,0,0,-1,280.74,107.01)"><tspan
             id="tspan202"
             y="0"
             x="0">●</tspan></text>
<text
           id="text208"
           style="font-variant:normal;font-weight:normal;font-size:22.19000053px;font-family:ZapfDingbats;-inkscape-font-specification:ZapfDingbats;writing-mode:lr-tb;fill:#000000;fill-opacity:1;fill-rule:nonzero;stroke:#000000;stroke-width:0.75;stroke-linecap:round;stroke-linejoin:round;stroke-miterlimit:10;stroke-dasharray:none;stroke-opacity:1"
           transform="matrix(1,0,0,-1,280.74,123.02)"><tspan
             id="tspan206"
             y="0"
             x="0">●</tspan></text>
<text
           id="text212"
           style="font-variant:normal;font-weight:normal;font-size:22.19000053px;font-family:ZapfDingbats;-inkscape-font-specification:ZapfDingbats;writing-mode:lr-tb;fill:#000000;fill-opacity:1;fill-rule:nonzero;stroke:#000000;stroke-width:0.75;stroke-linecap:round;stroke-linejoin:round;stroke-miterlimit:10;stroke-dasharray:none;stroke-opacity:1"
           transform="matrix(1,0,0,-1,299.44,58.95)"><tspan
             id="tspan210"
             y="0"
             x="0">●</tspan></text>
<text
           id="text216"
           style="font-variant:normal;font-weight:normal;font-size:22.19000053px;font-family:ZapfDingbats;-inkscape-font-specification:ZapfDingbats;writing-mode:lr-tb;fill:#000000;fill-opacity:1;fill-rule:nonzero;stroke:#000000;stroke-width:0.75;stroke-linecap:round;stroke-linejoin:round;stroke-miterlimit:10;stroke-dasharray:none;stroke-opacity:1"
           transform="matrix(1,0,0,-1,299.44,74.97)"><tspan
             id="tspan214"
             y="0"
             x="0">●</tspan></text>
<text
           id="text220"
           style="font-variant:normal;font-weight:normal;font-size:22.19000053px;font-family:ZapfDingbats;-inkscape-font-specification:ZapfDingbats;writing-mode:lr-tb;fill:#000000;fill-opacity:1;fill-rule:nonzero;stroke:#000000;stroke-width:0.75;stroke-linecap:round;stroke-linejoin:round;stroke-miterlimit:10;stroke-dasharray:none;stroke-opacity:1"
           transform="matrix(1,0,0,-1,299.44,90.99)"><tspan
             id="tspan218"
             y="0"
             x="0">●</tspan></text>
<text
           id="text224"
           style="font-variant:normal;font-weight:normal;font-size:22.19000053px;font-family:ZapfDingbats;-inkscape-font-specification:ZapfDingbats;writing-mode:lr-tb;fill:#000000;fill-opacity:1;fill-rule:nonzero;stroke:#000000;stroke-width:0.75;stroke-linecap:round;stroke-linejoin:round;stroke-miterlimit:10;stroke-dasharray:none;stroke-opacity:1"
           transform="matrix(1,0,0,-1,299.44,107.01)"><tspan
             id="tspan222"
             y="0"
             x="0">●</tspan></text>
<text
           id="text228"
           style="font-variant:normal;font-weight:normal;font-size:22.19000053px;font-family:ZapfDingbats;-inkscape-font-specification:ZapfDingbats;writing-mode:lr-tb;fill:#000000;fill-opacity:1;fill-rule:nonzero;stroke:#000000;stroke-width:0.75;stroke-linecap:round;stroke-linejoin:round;stroke-miterlimit:10;stroke-dasharray:none;stroke-opacity:1"
           transform="matrix(1,0,0,-1,321.41,58.95)"><tspan
             id="tspan226"
             y="0"
             x="0">●</tspan></text>
<text
           id="text232"
           style="font-variant:normal;font-weight:normal;font-size:22.19000053px;font-family:ZapfDingbats;-inkscape-font-specification:ZapfDingbats;writing-mode:lr-tb;fill:#000000;fill-opacity:1;fill-rule:nonzero;stroke:#000000;stroke-width:0.75;stroke-linecap:round;stroke-linejoin:round;stroke-miterlimit:10;stroke-dasharray:none;stroke-opacity:1"
           transform="matrix(1,0,0,-1,321.41,74.97)"><tspan
             id="tspan230"
             y="0"
             x="0">●</tspan></text>
<text
           id="text236"
           style="font-variant:normal;font-weight:normal;font-size:22.19000053px;font-family:ZapfDingbats;-inkscape-font-specification:ZapfDingbats;writing-mode:lr-tb;fill:#000000;fill-opacity:1;fill-rule:nonzero;stroke:#000000;stroke-width:0.75;stroke-linecap:round;stroke-linejoin:round;stroke-miterlimit:10;stroke-dasharray:none;stroke-opacity:1"
           transform="matrix(1,0,0,-1,321.41,90.99)"><tspan
             id="tspan234"
             y="0"
             x="0">●</tspan></text>
<text
           id="text240"
           style="font-variant:normal;font-weight:normal;font-size:22.19000053px;font-family:ZapfDingbats;-inkscape-font-specification:ZapfDingbats;writing-mode:lr-tb;fill:#000000;fill-opacity:1;fill-rule:nonzero;stroke:#000000;stroke-width:0.75;stroke-linecap:round;stroke-linejoin:round;stroke-miterlimit:10;stroke-dasharray:none;stroke-opacity:1"
           transform="matrix(1,0,0,-1,340.75,58.95)"><tspan
             id="tspan238"
             y="0"
             x="0">●</tspan></text>
<text
           id="text244"
           style="font-variant:normal;font-weight:normal;font-size:22.19000053px;font-family:ZapfDingbats;-inkscape-font-specification:ZapfDingbats;writing-mode:lr-tb;fill:#000000;fill-opacity:1;fill-rule:nonzero;stroke:#000000;stroke-width:0.75;stroke-linecap:round;stroke-linejoin:round;stroke-miterlimit:10;stroke-dasharray:none;stroke-opacity:1"
           transform="matrix(1,0,0,-1,340.75,74.97)"><tspan
             id="tspan242"
             y="0"
             x="0">●</tspan></text>
<text
           id="text248"
           style="font-variant:normal;font-weight:normal;font-size:22.19000053px;font-family:ZapfDingbats;-inkscape-font-specification:ZapfDingbats;writing-mode:lr-tb;fill:#000000;fill-opacity:1;fill-rule:nonzero;stroke:#000000;stroke-width:0.75;stroke-linecap:round;stroke-linejoin:round;stroke-miterlimit:10;stroke-dasharray:none;stroke-opacity:1"
           transform="matrix(1,0,0,-1,415.34,58.95)"><tspan
             id="tspan246"
             y="0"
             x="0">●</tspan></text>
<text
           id="text252"
           style="font-variant:normal;font-weight:normal;font-size:22.19000053px;font-family:ZapfDingbats;-inkscape-font-specification:ZapfDingbats;writing-mode:lr-tb;fill:#000000;fill-opacity:1;fill-rule:nonzero;stroke:#000000;stroke-width:0.75;stroke-linecap:round;stroke-linejoin:round;stroke-miterlimit:10;stroke-dasharray:none;stroke-opacity:1"
           transform="matrix(1,0,0,-1,447.59,58.95)"><tspan
             id="tspan250"
             y="0"
             x="0">●</tspan></text>
</g></g><g
       id="g254" /><g
       id="g256" /><g
       id="g258" /><g
       id="g260" /><g
       id="g262" /><g
       id="g264"><text
         id="text268"
         style="font-variant:normal;font-weight:normal;font-size:16px;font-family:Helvetica;-inkscape-font-specification:Helvetica;writing-mode:lr-tb;fill:#4d4d4d;fill-opacity:1;fill-rule:nonzero;stroke:none"
         transform="matrix(1,0,0,-1,26.41,52.89)"><tspan
           id="tspan266"
           y="0"
           x="0 8.8959999 13.344 22.24">0.00</tspan></text>
<text
         id="text272"
         style="font-variant:normal;font-weight:normal;font-size:16px;font-family:Helvetica;-inkscape-font-specification:Helvetica;writing-mode:lr-tb;fill:#4d4d4d;fill-opacity:1;fill-rule:nonzero;stroke:none"
         transform="matrix(1,0,0,-1,26.41,131.91)"><tspan
           id="tspan270"
           y="0"
           x="0 8.8959999 13.344 22.24">0.25</tspan></text>
<text
         id="text276"
         style="font-variant:normal;font-weight:normal;font-size:16px;font-family:Helvetica;-inkscape-font-specification:Helvetica;writing-mode:lr-tb;fill:#4d4d4d;fill-opacity:1;fill-rule:nonzero;stroke:none"
         transform="matrix(1,0,0,-1,26.41,210.93)"><tspan
           id="tspan274"
           y="0"
           x="0 8.8959999 13.344 22.24">0.50</tspan></text>
<text
         id="text280"
         style="font-variant:normal;font-weight:normal;font-size:16px;font-family:Helvetica;-inkscape-font-specification:Helvetica;writing-mode:lr-tb;fill:#4d4d4d;fill-opacity:1;fill-rule:nonzero;stroke:none"
         transform="matrix(1,0,0,-1,26.41,289.95)"><tspan
           id="tspan278"
           y="0"
           x="0 8.8959999 13.344 22.24">0.75</tspan></text>
<text
         id="text284"
         style="font-variant:normal;font-weight:normal;font-size:16px;font-family:Helvetica;-inkscape-font-specification:Helvetica;writing-mode:lr-tb;fill:#4d4d4d;fill-opacity:1;fill-rule:nonzero;stroke:none"
         transform="matrix(1,0,0,-1,26.41,368.97)"><tspan
           id="tspan282"
           y="0"
           x="0 8.8959999 13.344 22.24">1.00</tspan></text>
</g><g
       id="g286" /><g
       id="g288" /><g
       id="g290"><path
         id="path292"
         style="fill:none;stroke:#333333;stroke-width:1.07000005;stroke-linecap:butt;stroke-linejoin:round;stroke-miterlimit:10;stroke-dasharray:none;stroke-opacity:1"
         d="m 59.74,58.64 h 2.74" /><path
         id="path294"
         style="fill:none;stroke:#333333;stroke-width:1.07000005;stroke-linecap:butt;stroke-linejoin:round;stroke-miterlimit:10;stroke-dasharray:none;stroke-opacity:1"
         d="m 59.74,137.66 h 2.74" /><path
         id="path296"
         style="fill:none;stroke:#333333;stroke-width:1.07000005;stroke-linecap:butt;stroke-linejoin:round;stroke-miterlimit:10;stroke-dasharray:none;stroke-opacity:1"
         d="m 59.74,216.68 h 2.74" /><path
         id="path298"
         style="fill:none;stroke:#333333;stroke-width:1.07000005;stroke-linecap:butt;stroke-linejoin:round;stroke-miterlimit:10;stroke-dasharray:none;stroke-opacity:1"
         d="m 59.74,295.7 h 2.74" /><path
         id="path300"
         style="fill:none;stroke:#333333;stroke-width:1.07000005;stroke-linecap:butt;stroke-linejoin:round;stroke-miterlimit:10;stroke-dasharray:none;stroke-opacity:1"
         d="m 59.74,374.72 h 2.74" /></g><g
       id="g302" /><g
       id="g304" /><g
       id="g306" /><g
       id="g308" /><g
       id="g310" /><g
       id="g312" /><g
       id="g314" /><g
       id="g316" /><g
       id="g318"><path
         id="path320"
         style="fill:none;stroke:#333333;stroke-width:1.07000005;stroke-linecap:butt;stroke-linejoin:round;stroke-miterlimit:10;stroke-dasharray:none;stroke-opacity:1"
         d="m 93.67,40.09 v 2.74" /><path
         id="path322"
         style="fill:none;stroke:#333333;stroke-width:1.07000005;stroke-linecap:butt;stroke-linejoin:round;stroke-miterlimit:10;stroke-dasharray:none;stroke-opacity:1"
         d="m 173.77,40.09 v 2.74" /><path
         id="path324"
         style="fill:none;stroke:#333333;stroke-width:1.07000005;stroke-linecap:butt;stroke-linejoin:round;stroke-miterlimit:10;stroke-dasharray:none;stroke-opacity:1"
         d="m 253.86,40.09 v 2.74" /><path
         id="path326"
         style="fill:none;stroke:#333333;stroke-width:1.07000005;stroke-linecap:butt;stroke-linejoin:round;stroke-miterlimit:10;stroke-dasharray:none;stroke-opacity:1"
         d="m 333.96,40.09 v 2.74" /><path
         id="path328"
         style="fill:none;stroke:#333333;stroke-width:1.07000005;stroke-linecap:butt;stroke-linejoin:round;stroke-miterlimit:10;stroke-dasharray:none;stroke-opacity:1"
         d="m 414.05,40.09 v 2.74" /></g><g
       id="g330" /><g
       id="g332"><text
         id="text336"
         style="font-variant:normal;font-weight:normal;font-size:16px;font-family:Helvetica;-inkscape-font-specification:Helvetica;writing-mode:lr-tb;fill:#4d4d4d;fill-opacity:1;fill-rule:nonzero;stroke:none"
         transform="matrix(1,0,0,-1,77.88,26.41)"><tspan
           id="tspan334"
           y="0"
           x="0 9.3439999 18.24 22.688">−0.5</tspan></text>
<text
         id="text340"
         style="font-variant:normal;font-weight:normal;font-size:16px;font-family:Helvetica;-inkscape-font-specification:Helvetica;writing-mode:lr-tb;fill:#4d4d4d;fill-opacity:1;fill-rule:nonzero;stroke:none"
         transform="matrix(1,0,0,-1,162.65,26.41)"><tspan
           id="tspan338"
           y="0"
           x="0 8.8959999 13.344">0.0</tspan></text>
<text
         id="text344"
         style="font-variant:normal;font-weight:normal;font-size:16px;font-family:Helvetica;-inkscape-font-specification:Helvetica;writing-mode:lr-tb;fill:#4d4d4d;fill-opacity:1;fill-rule:nonzero;stroke:none"
         transform="matrix(1,0,0,-1,242.74,26.41)"><tspan
           id="tspan342"
           y="0"
           x="0 8.8959999 13.344">0.5</tspan></text>
<text
         id="text348"
         style="font-variant:normal;font-weight:normal;font-size:16px;font-family:Helvetica;-inkscape-font-specification:Helvetica;writing-mode:lr-tb;fill:#4d4d4d;fill-opacity:1;fill-rule:nonzero;stroke:none"
         transform="matrix(1,0,0,-1,322.84,26.41)"><tspan
           id="tspan346"
           y="0"
           x="0 8.8959999 13.344">1.0</tspan></text>
<text
         id="text352"
         style="font-variant:normal;font-weight:normal;font-size:16px;font-family:Helvetica;-inkscape-font-specification:Helvetica;writing-mode:lr-tb;fill:#4d4d4d;fill-opacity:1;fill-rule:nonzero;stroke:none"
         transform="matrix(1,0,0,-1,402.93,26.41)"><tspan
           id="tspan350"
           y="0"
           x="0 8.8959999 13.344">1.5</tspan></text>
</g><g
       id="g354" /><g
       id="g356" /><g
       id="g358" /><g
       id="g360" /><g
       id="g362" /><g
       id="g364"><text
         id="text368"
         style="font-variant:normal;font-weight:normal;font-size:20px;font-family:Helvetica;-inkscape-font-specification:Helvetica;writing-mode:lr-tb;fill:#000000;fill-opacity:1;fill-rule:nonzero;stroke:none"
         transform="matrix(1,0,0,-1,198.39,7.67)"><tspan
           id="tspan366"
           y="0"
           x="0 13.34 20.299999 24.74 41.400002 45.84 56.959999 68.080002 73.639999 84.760002 94.760002 100.32 104.76 121.42 132.53999 138.10001">Priming estimate</tspan></text>
</g><g
       id="g370" /><g
       id="g372" /><g
       id="g374"><text
         id="text378"
         style="font-variant:normal;font-weight:normal;font-size:20px;font-family:Helvetica;-inkscape-font-specification:Helvetica;writing-mode:lr-tb;fill:#000000;fill-opacity:1;fill-rule:nonzero;stroke:none"
         transform="matrix(0,1,1,0,22.03,135.54)"><tspan
           id="tspan376"
           y="0"
           x="0 13.34 20 31.120001 42.240002 53.360001 64.480003 68.919998 73.360001 77.800003 83.360001 93.360001 98.919998 110.04 121.16 132.28 142.28 146.72 152.28">Probability density</tspan></text>
</g><g
       id="g380" /><g
       id="g382" /><g
       id="g384" /><g
       id="g386" /><g
       id="g388" /></g></svg>